<?xml version="1.0" encoding="UTF-8"?>
<svg id="_Слой_2" data-name="Слой 2" xmlns="http://www.w3.org/2000/svg" viewBox="0 0 127.96 128.31">
  <defs>
    <style>
      .cls-1 {
        fill: #ffe36b;
        stroke-width: 0px;
      }
    </style>
  </defs>
  <g id="_планеты" data-name="планеты">
    <g>
      <polygon class="cls-1" points="2.56 48.49 3.36 45.64 3.37 45.63 3.37 45.64 2.56 48.49"/>
      <path class="cls-1" d="m4.88,40.93l.34-.93c.03-.09.13-.13.22-.1s.13.13.1.22c0,0,0,0,0,.01l-.4.9c-.03.07-.11.1-.18.07-.07-.03-.1-.1-.07-.17Z"/>
      <path class="cls-1" d="m11.12,27.32l.52-.87c.35-.58,1.11-.77,1.69-.42.58.35.77,1.11.42,1.69-.04.06-.07.11-.12.16v.02s-.65.74-.65.74v.02c-.43.48-1.15.53-1.63.12-.43-.37-.52-.99-.24-1.46Z"/>
      <path class="cls-1" d="m12.17,25.6l1.69-2.52c.48-.71,1.45-.91,2.16-.43.72.48.91,1.45.43,2.16-.05.07-.1.13-.15.19l-.05.06-1.99,2.12-.05.05c-.5.53-1.33.55-1.85.06-.48-.45-.54-1.16-.19-1.69Z"/>
      <path class="cls-1" d="m17.01,19.08l.67-.76c.71-.81,1.94-.89,2.75-.17.81.71.89,1.94.17,2.75-.05.06-.1.11-.16.16l-.03.02-.72.64-.03.02c-.78.69-1.97.63-2.67-.15-.64-.72-.63-1.8,0-2.5Z"/>
      <path class="cls-1" d="m28.9,9.61l.89-.5c.83-.46,1.88-.17,2.35.67.44.78.2,1.76-.52,2.26l-.03.02-.79.55h-.02c-.81.57-1.91.37-2.47-.44-.56-.81-.35-1.91.45-2.47.05-.03.09-.06.14-.09Z"/>
      <path class="cls-1" d="m30.69,8.63l2.72-1.36c.76-.38,1.69-.08,2.07.69.36.72.11,1.59-.56,2l-.07.04-2.46,1.52-.06.04c-.79.49-1.82.24-2.31-.55-.49-.79-.24-1.82.55-2.31.04-.03.09-.05.13-.07Z"/>
      <path class="cls-1" d="m38.02,5.22l.93-.39c.71-.29,1.53.05,1.82.76.29.71-.04,1.51-.74,1.81h-.02s-.89.39-.89.39h-.02c-.71.32-1.54-.01-1.85-.72-.31-.71.02-1.54.73-1.85,0,0,.02,0,.02,0Z"/>
      <path class="cls-1" d="m52.5.9l.99-.17c.77-.13,1.51.38,1.64,1.16.13.77-.38,1.51-1.16,1.64,0,0,0,0-.01,0h-.03s-.95.15-.95.15h-.02c-.77.12-1.49-.4-1.61-1.17-.12-.76.4-1.48,1.15-1.61Z"/>
      <path class="cls-1" d="m54.49.58l3.01-.35c.78-.09,1.48.47,1.57,1.24.09.78-.47,1.48-1.24,1.57h-.07s-2.87.34-2.87.34h-.07c-.78.1-1.48-.46-1.57-1.24-.09-.78.47-1.48,1.24-1.57h0Z"/>
      <path class="cls-1" d="m62.54,0h1.01c.75.01,1.36.63,1.36,1.39,0,.74-.6,1.34-1.34,1.36h-.02s-.97.02-.97.02h-.02c-.76.01-1.39-.59-1.41-1.35S61.74.01,62.51,0c.01,0,.03,0,.04,0Z"/>
      <path class="cls-1" d="m77.5,1.86l.97.25c.58.15.93.74.78,1.31-.14.56-.71.91-1.27.79h-.02s-.95-.21-.95-.21h-.02c-.59-.13-.97-.71-.85-1.31.13-.6.71-.97,1.31-.85.01,0,.03,0,.04.01Z"/>
      <path class="cls-1" d="m79.44,2.37l2.88.88c.53.16.83.72.67,1.25-.16.52-.7.82-1.22.68h-.05s-2.82-.75-2.82-.75h-.05c-.57-.16-.91-.74-.76-1.31s.73-.91,1.3-.76c.01,0,.03,0,.04.01Z"/>
      <path class="cls-1" d="m87.03,4.99l.92.39c.46.2.67.72.47,1.18-.19.45-.7.66-1.15.49h-.02s-.91-.36-.91-.36h-.01c-.47-.19-.71-.72-.53-1.19.18-.47.71-.71,1.19-.53,0,0,.02,0,.03.01Z"/>
      <path class="cls-1" d="m100.07,12.34l.8.6c.29.21.35.62.13.9-.21.28-.6.34-.89.15h0s-.8-.56-.8-.56h0c-.3-.21-.38-.63-.17-.93.21-.3.62-.38.92-.17,0,0,.01,0,.02.01Z"/>
      <path class="cls-1" d="m101.67,13.54l2.31,1.9c.24.2.28.56.08.8-.2.24-.54.28-.79.09l-.02-.02-2.34-1.78-.02-.02c-.28-.21-.33-.61-.12-.88.21-.28.61-.33.88-.12,0,0,.01.01.02.02Z"/>
      <path class="cls-1" d="m107.61,18.85l.69.71c.18.18.17.47,0,.65-.18.17-.46.17-.63,0h0s-.71-.68-.71-.68h0c-.19-.19-.2-.49-.02-.68.18-.19.48-.2.67-.02,0,0,0,0,.01.01Z"/>
      <path class="cls-1" d="m116.9,30.47l.53.84c.11.18.06.42-.12.54-.18.11-.42.06-.54-.12h0s0,0,0,0l-.51-.84h0c-.11-.19-.05-.43.13-.54.18-.11.42-.06.53.12Z"/>
      <path class="cls-1" d="m117.95,32.16c.49.86.97,1.73,1.47,2.59.12.2.05.46-.15.58-.2.12-.46.05-.58-.15,0,0,0-.01-.01-.02v-.02c-.46-.87-.95-1.72-1.42-2.58v-.02c-.11-.19-.04-.43.15-.54.19-.1.43-.04.53.15Z"/>
      <path class="cls-1" d="m121.67,39.18l.42.9c.13.29,0,.63-.28.76s-.63,0-.76-.28c0-.01-.01-.02-.01-.03h0s-.35-.92-.35-.92h0c-.11-.29.03-.6.31-.7.27-.1.56.02.68.28Z"/>
      <path class="cls-1" d="m126.62,53.35l.21.99c.15.7-.29,1.38-.99,1.53s-1.38-.29-1.53-.99c0-.04-.02-.09-.02-.13v-.02s-.11-.96-.11-.96v-.02c-.08-.68.41-1.29,1.09-1.37.63-.07,1.21.36,1.35.97Z"/>
      <path class="cls-1" d="m127.03,55.32c.17.99.32,1.99.48,2.99.13.8-.42,1.55-1.22,1.67-.8.13-1.55-.42-1.67-1.22,0-.04-.01-.08-.01-.11v-.07c-.08-.96-.16-1.92-.22-2.89v-.07c-.05-.74.52-1.37,1.25-1.41.69-.04,1.28.44,1.39,1.1Z"/>
      <path class="cls-1" d="m127.93,63.36l.03,1.01c.03.9-.68,1.66-1.59,1.69-.9.03-1.66-.68-1.69-1.59,0-.03,0-.05,0-.08v-.03s.02-.96.02-.96v-.03c.02-.89.76-1.6,1.65-1.58.86.02,1.55.71,1.58,1.56Z"/>
      <path class="cls-1" d="m126.05,78.37l-.25.98c-.17.69-.88,1.11-1.57.94-.68-.17-1.09-.85-.95-1.52v-.02s.21-.94.21-.94v-.02c.16-.71.85-1.16,1.56-1,.71.15,1.16.85,1,1.55,0,.01,0,.03-.01.04Z"/>
      <path class="cls-1" d="m125.55,80.32c-.31.96-.51,1.95-.67,2.96-.13.79-.87,1.33-1.66,1.21-.79-.13-1.33-.87-1.21-1.66.02-.12.05-.23.09-.33l.03-.06c.38-.89.71-1.81.94-2.75v-.05c.18-.69.87-1.11,1.56-.94s1.11.86.94,1.55c0,.03-.02.06-.02.08Z"/>
      <path class="cls-1" d="m123.39,88.11l-.37.94c-.33.85-1.3,1.27-2.15.94s-1.27-1.3-.94-2.15c0,0,0-.02.01-.03v-.03s.38-.89.38-.89v-.02c.36-.84,1.33-1.23,2.16-.88.83.35,1.22,1.29.9,2.12Z"/>
      <path class="cls-1" d="m116.28,101.54l-.59.83c-.57.79-1.68.98-2.47.4s-.98-1.68-.4-2.47v-.02s.57-.78.57-.78l.02-.02c.57-.8,1.68-.98,2.47-.41s.98,1.68.41,2.47h0Z"/>
      <path class="cls-1" d="m115.08,103.18c-.63.79-1.26,1.6-1.91,2.37-.62.74-1.72.84-2.46.22-.72-.6-.83-1.65-.28-2.39l.05-.07c.58-.77,1.18-1.52,1.77-2.27l.05-.07c.61-.77,1.72-.9,2.49-.29s.9,1.72.3,2.49h0Z"/>
      <path class="cls-1" d="m109.71,109.26l-.73.71c-.65.63-1.69.62-2.32-.03-.62-.63-.62-1.64-.02-2.28l.02-.02.66-.7.02-.02c.63-.66,1.68-.69,2.35-.06.66.63.69,1.68.06,2.35-.01.01-.03.03-.04.04Z"/>
      <path class="cls-1" d="m97.44,118.03l-.83.56c-.35.24-.84.15-1.08-.2-.24-.35-.15-.84.2-1.08.02-.01.04-.02.06-.04h.01s.85-.48.85-.48h.01c.35-.2.8-.08,1,.27.19.33.08.75-.23.96Z"/>
      <path class="cls-1" d="m95.78,119.15l-2.54,1.61c-.47.29-1.08.16-1.38-.31-.29-.47-.16-1.08.31-1.38.03-.02.06-.04.1-.05l.04-.02,2.63-1.28.04-.02c.41-.2.91-.03,1.11.38.19.38.05.84-.3,1.06Z"/>
      <path class="cls-1" d="m88.79,123.09l-.92.4c-.6.26-1.31,0-1.57-.61-.26-.6.01-1.31.61-1.57,0,0,.02,0,.02-.01h.02s.9-.37.9-.37h.02c.6-.25,1.29.04,1.53.64.24.59-.04,1.27-.62,1.52Z"/>
      <path class="cls-1" d="m74.39,127.55l-.99.16c-.72.12-1.4-.37-1.52-1.09s.37-1.4,1.09-1.52h.02s.95-.16.95-.16h.02c.72-.12,1.4.36,1.52,1.09.12.72-.37,1.4-1.09,1.52h0Z"/>
      <path class="cls-1" d="m72.4,127.85l-3.01.31c-.7.07-1.33-.44-1.4-1.14-.07-.69.42-1.31,1.1-1.4h.06s2.88-.39,2.88-.39h.06c.72-.1,1.38.4,1.47,1.12.09.72-.41,1.38-1.13,1.47,0,0-.02,0-.03,0Z"/>
      <path class="cls-1" d="m64.36,128.31c-.34,0-.67-.02-1.01-.04-.61-.04-1.08-.56-1.04-1.17.03-.56.48-1,1.03-1.04h.02c.32-.02.65-.05.97-.05h.02c.64-.02,1.17.48,1.19,1.12.02.64-.48,1.17-1.12,1.19-.02,0-.04,0-.05,0Z"/>
      <path class="cls-1" d="m49.62,125.74l-.95-.29s-.04-.04-.04-.07c0-.03.03-.04.06-.04l.97.16c.07,0,.11.07.1.14s-.07.11-.14.1c0,0-.01,0-.02,0Z"/>
      <path class="cls-1" d="m47.72,125.18c-.95-.29-1.9-.55-2.85-.81,0,0-.01,0,0-.02,0,0,0-.01.02,0h0c.95.28,1.9.56,2.85.8,0,0,.02.01.01.02,0,0-.01.02-.02.01,0,0,0,0,0,0Z"/>
      <path class="cls-1" d="m40.15,122.88l-.93-.33c-.11-.04-.17-.16-.13-.28s.16-.17.28-.13c0,0,.01,0,.02,0l.9.41c.09.04.13.14.09.23-.04.08-.13.12-.22.09Z"/>
      <path class="cls-1" d="m26.95,116.05l-.81-.58c-.2-.14-.25-.42-.11-.62s.42-.25.62-.11h0s0,0,0,0l.8.57h0c.2.15.24.42.1.62-.14.2-.42.24-.62.1Z"/>
      <path class="cls-1" d="m25.34,114.89l-2.35-1.84c-.2-.16-.24-.45-.08-.65.16-.2.45-.24.65-.08h0s.02.02.02.02l2.3,1.83h.02c.19.17.23.45.07.65-.15.19-.44.23-.63.07Z"/>
      <path class="cls-1" d="m19.28,109.74l-.71-.7c-.19-.19-.19-.5,0-.69s.5-.19.69,0h0s0,0,0,0l.69.69h0c.19.19.19.5,0,.69-.19.19-.49.19-.68,0Z"/>
      <path class="cls-1" d="m9.9,98.17l-.52-.84c-.14-.22-.07-.52.15-.66s.52-.07.66.15h0s.52.84.52.84h0c.14.23.07.52-.15.66-.22.14-.52.07-.66-.15h0Z"/>
      <path class="cls-1" d="m8.86,96.47l-1.46-2.6c-.13-.23-.05-.52.18-.65.23-.13.52-.05.65.18h0s.01.02.01.02l1.43,2.57v.02c.14.23.06.52-.17.65-.23.13-.52.05-.65-.18Z"/>
      <path class="cls-1" d="m5.23,89.4l-.39-.91c-.11-.26,0-.56.27-.67.26-.11.56,0,.67.27h0s0,.01,0,.01l.38.9h0c.11.26-.01.56-.27.67-.26.11-.55-.01-.66-.27Z"/>
      <path class="cls-1" d="m.9,75.13l-.17-.98c-.05-.31.16-.6.47-.66.31-.05.61.16.66.47h0s0,.01,0,.01l.16.97h0c.05.32-.16.61-.47.66-.31.05-.6-.16-.65-.47Z"/>
      <path class="cls-1" d="m.58,73.17l-.34-2.97c-.04-.31.19-.59.5-.62.31-.04.59.18.62.49v.03s.36,2.91.36,2.91v.03c.04.31-.18.6-.5.64-.31.04-.6-.19-.64-.5h0Z"/>
      <path class="cls-1" d="m0,65.22v-1c0-.29.24-.53.53-.53.29,0,.53.23.53.52h0s.01.99.01.99h0c0,.3-.23.55-.53.55-.3,0-.54-.23-.54-.53,0,0,0,0,0,0Z"/>
      <path class="cls-1" d="m2.05,50.51l.23-.96s0,0,.01,0,0,0,0,.01l-.21.96s-.01.02-.02.01c-.01,0-.02-.01-.01-.02,0,0,0,0,0,0Z"/>
    </g>
  </g>
</svg>