<?xml version="1.0" encoding="UTF-8"?>
<svg id="_Слой_2" data-name="Слой 2" xmlns="http://www.w3.org/2000/svg" viewBox="0 0 127.15 126.79">
  <defs>
    <style>
      .cls-1 {
        fill: #ffe36b;
        stroke-width: 0px;
      }
    </style>
  </defs>
  <g id="_планеты" data-name="планеты">
    <g>
      <polygon class="cls-1" points="70.34 .3 73.28 .69 73.29 .7 73.28 .71 73.28 .71 70.34 .3"/>
      <path class="cls-1" d="m78.16,1.53l.97.21c.09.02.15.11.13.2-.02.09-.11.15-.2.13,0,0-.01,0-.01,0l-.95-.27c-.07-.02-.12-.09-.1-.17.02-.07.09-.11.16-.1Z"/>
      <path class="cls-1" d="m92.51,5.77l.93.39c.63.26.92.98.66,1.61-.26.63-.99.92-1.61.66-.06-.03-.12-.06-.18-.09h-.02s-.82-.54-.82-.54h-.02c-.53-.35-.69-1.06-.35-1.59.3-.48.9-.65,1.41-.44Z"/>
      <path class="cls-1" d="m94.37,6.57l2.74,1.32c.78.37,1.1,1.31.73,2.08-.37.78-1.31,1.1-2.08.73-.07-.04-.15-.08-.21-.12l-.06-.04-2.38-1.67-.05-.04c-.59-.42-.74-1.23-.32-1.83.37-.53,1.07-.7,1.64-.43Z"/>
      <path class="cls-1" d="m101.51,10.44l.85.56c.9.59,1.15,1.8.56,2.7s-1.8,1.15-2.7.56c-.06-.04-.12-.09-.18-.13l-.03-.02-.73-.62-.03-.02c-.8-.67-.9-1.86-.23-2.66.62-.74,1.69-.88,2.48-.36Z"/>
      <path class="cls-1" d="m112.58,20.86l.62.81c.58.76.43,1.84-.33,2.42-.71.54-1.71.45-2.31-.19l-.03-.03-.65-.71-.02-.02c-.66-.72-.62-1.84.1-2.5.72-.66,1.84-.62,2.5.1.04.04.07.08.11.13Z"/>
      <path class="cls-1" d="m113.79,22.49l1.74,2.49c.49.7.31,1.66-.39,2.15-.66.46-1.56.33-2.06-.27l-.05-.06-1.85-2.22-.05-.06c-.59-.71-.5-1.77.21-2.37.71-.59,1.77-.5,2.37.21.03.04.06.08.09.12Z"/>
      <path class="cls-1" d="m118.22,29.26l.51.87c.39.66.17,1.52-.49,1.91-.66.39-1.5.18-1.9-.47v-.02s-.52-.82-.52-.82v-.02c-.42-.66-.21-1.53.45-1.93.66-.41,1.53-.2,1.93.46,0,0,0,.01.01.02Z"/>
      <path class="cls-1" d="m124.55,42.98l.31.96c.24.75-.17,1.54-.91,1.79-.74.24-1.54-.17-1.79-.91h0s0-.04,0-.04l-.28-.92v-.02c-.24-.74.18-1.53.93-1.76.74-.23,1.52.18,1.76.91Z"/>
      <path class="cls-1" d="m125.15,44.91l.77,2.93c.2.76-.25,1.53-1.01,1.73-.76.2-1.53-.25-1.73-1.01l-.02-.06-.74-2.8-.02-.06c-.2-.76.25-1.53,1.01-1.73s1.53.25,1.73,1.01Z"/>
      <path class="cls-1" d="m126.86,52.8l.14,1c.1.75-.42,1.44-1.17,1.54-.74.1-1.41-.4-1.53-1.13v-.02s-.16-.95-.16-.95v-.02c-.13-.75.38-1.46,1.14-1.58.75-.12,1.46.39,1.58,1.14,0,.01,0,.03,0,.04Z"/>
      <path class="cls-1" d="m127.15,67.87l-.11,1c-.06.59-.6,1.02-1.19.96-.58-.06-1-.57-.96-1.15v-.02s.07-.97.07-.97v-.02c.04-.61.57-1.07,1.17-1.02.61.04,1.07.57,1.02,1.17,0,.01,0,.03,0,.04Z"/>
      <path class="cls-1" d="m126.92,69.86l-.46,2.98c-.08.55-.6.93-1.15.84-.54-.08-.91-.57-.85-1.11v-.05s.34-2.9.34-2.9v-.05c.07-.58.6-1,1.18-.93.58.07,1,.59.93,1.18,0,.01,0,.03,0,.04Z"/>
      <path class="cls-1" d="m125.4,77.74l-.26.97c-.13.48-.62.77-1.1.64-.47-.13-.75-.6-.65-1.07v-.02s.22-.95.22-.95h0c.11-.51.61-.82,1.1-.7.49.11.8.61.69,1.1,0,0,0,.02,0,.03Z"/>
      <path class="cls-1" d="m119.98,91.7l-.48.88c-.17.31-.56.43-.88.26-.31-.17-.43-.55-.27-.86h0s.44-.89.44-.89h0c.16-.34.56-.47.89-.31.33.16.46.56.3.89,0,0,0,.01-.01.02Z"/>
      <path class="cls-1" d="m119.01,93.45l-1.56,2.56c-.16.27-.52.35-.79.19-.26-.16-.35-.5-.2-.77v-.02s1.44-2.56,1.44-2.56v-.03c.18-.3.57-.41.87-.24.3.17.41.55.24.86,0,0,0,.02-.01.02Z"/>
      <path class="cls-1" d="m114.6,100.08l-.61.79c-.15.2-.44.24-.64.08-.2-.15-.24-.43-.09-.63h0s.57-.8.57-.8h0c.15-.22.45-.27.66-.12.21.15.26.45.11.66,0,0,0,0-.01.01Z"/>
      <path class="cls-1" d="m104.42,110.93l-.76.64c-.16.14-.41.12-.55-.05-.14-.17-.12-.41.05-.55h0s0,0,0,0l.75-.63h0c.16-.14.41-.12.54.05.14.16.11.41-.05.54Z"/>
      <path class="cls-1" d="m102.9,112.2c-.78.61-1.58,1.2-2.35,1.83-.18.15-.45.12-.59-.06-.15-.18-.12-.45.06-.59,0,0,.01,0,.02-.01h.02c.8-.58,1.57-1.19,2.36-1.77h.01c.17-.14.42-.11.55.07.13.17.1.42-.07.55Z"/>
      <path class="cls-1" d="m96.47,116.89l-.84.54c-.27.17-.62.1-.79-.17s-.1-.62.17-.79c.01,0,.02-.01.03-.02h0s.86-.48.86-.48h0c.26-.15.59-.06.73.2.14.25.06.56-.18.71Z"/>
      <path class="cls-1" d="m83.15,123.8l-.94.35c-.67.25-1.41-.09-1.66-.76s.09-1.41.76-1.66c.04-.02.08-.03.12-.04h.02s.94-.25.94-.25h.02c.66-.18,1.34.22,1.51.88.16.62-.18,1.25-.77,1.47Z"/>
      <path class="cls-1" d="m81.25,124.49c-.96.31-1.93.6-2.89.9-.77.24-1.59-.2-1.83-.97-.24-.77.2-1.59.97-1.83.04-.01.07-.02.11-.03l.07-.02c.94-.21,1.88-.43,2.83-.62h.07c.72-.16,1.43.31,1.58,1.03.14.67-.26,1.33-.9,1.54Z"/>
      <path class="cls-1" d="m73.43,126.52l-1,.17c-.89.16-1.74-.44-1.9-1.33-.16-.89.44-1.74,1.33-1.9.03,0,.05,0,.08-.01h.03s.95-.12.95-.12h.03c.88-.11,1.69.52,1.8,1.4.11.86-.48,1.64-1.32,1.79Z"/>
      <path class="cls-1" d="m58.3,126.78l-1-.1c-.71-.07-1.22-.71-1.15-1.42.07-.69.68-1.2,1.37-1.15h.02s.96.07.96.07h.02c.72.05,1.27.68,1.22,1.4-.05.72-.68,1.27-1.4,1.21-.01,0-.03,0-.05,0Z"/>
      <path class="cls-1" d="m56.3,126.57c-.99-.17-2-.23-3.02-.25-.8-.01-1.44-.67-1.43-1.47.01-.8.67-1.44,1.47-1.43.12,0,.23.02.34.05l.06.02c.94.25,1.89.45,2.85.54h.05c.7.07,1.22.7,1.15,1.4-.07.7-.69,1.22-1.4,1.15-.03,0-.06,0-.09-.01Z"/>
      <path class="cls-1" d="m48.28,125.54l-.99-.23c-.89-.21-1.44-1.1-1.23-1.99.21-.89,1.1-1.44,1.99-1.23,0,0,.02,0,.03,0h.03s.93.25.93.25h.03c.88.23,1.41,1.13,1.18,2.01-.23.87-1.1,1.39-1.97,1.19Z"/>
      <path class="cls-1" d="m33.98,120.41l-.9-.47c-.87-.45-1.2-1.52-.75-2.39.45-.87,1.52-1.2,2.39-.75h.02s.85.45.85.45h.02c.87.46,1.21,1.53.76,2.4-.45.87-1.52,1.21-2.39.76h0Z"/>
      <path class="cls-1" d="m32.19,119.45c-.88-.51-1.76-1.02-2.62-1.55-.82-.51-1.08-1.58-.57-2.41.49-.79,1.51-1.06,2.32-.62l.08.04c.84.46,1.67.95,2.5,1.43l.07.04c.85.49,1.14,1.57.65,2.42-.49.85-1.57,1.13-2.42.65h0Z"/>
      <path class="cls-1" d="m25.4,115l-.8-.62c-.72-.55-.85-1.58-.3-2.3.54-.7,1.54-.85,2.25-.34l.02.02.78.56h.02c.75.55.92,1.58.39,2.33-.53.75-1.57.92-2.31.39-.01-.01-.03-.03-.05-.04Z"/>
      <path class="cls-1" d="m14.98,104.09l-.68-.74c-.29-.32-.27-.81.05-1.1.32-.29.81-.27,1.1.05.02.02.03.03.04.05h0s.59.79.59.79h0c.25.33.19.79-.14,1.04-.3.23-.73.19-.99-.09Z"/>
      <path class="cls-1" d="m13.64,102.62l-1.95-2.29c-.36-.42-.31-1.05.11-1.4.42-.36,1.05-.31,1.4.11.02.03.05.06.07.09l.03.04,1.64,2.42.02.03c.26.38.16.89-.22,1.15-.35.24-.82.17-1.09-.15Z"/>
      <path class="cls-1" d="m8.74,96.26l-.53-.85c-.35-.56-.18-1.29.38-1.64.56-.35,1.29-.18,1.64.38,0,0,0,.02.01.02v.02s.5.84.5.84v.02c.34.56.15,1.28-.41,1.61-.55.32-1.26.14-1.59-.4Z"/>
      <path class="cls-1" d="m2.29,82.63l-.3-.96c-.22-.7.17-1.44.86-1.66.7-.22,1.44.17,1.66.86v.02s.3.92.3.92v.02c.23.7-.16,1.44-.86,1.66-.7.22-1.44-.17-1.66-.86Z"/>
      <path class="cls-1" d="m1.7,80.7l-.74-2.93c-.17-.68.24-1.37.92-1.55.67-.17,1.35.23,1.54.89l.02.06.78,2.79.02.06c.2.7-.21,1.42-.91,1.62-.7.2-1.42-.21-1.62-.91,0,0,0-.02,0-.03Z"/>
      <path class="cls-1" d="m.11,72.81c-.04-.33-.07-.67-.1-1-.05-.61.4-1.15,1.01-1.2.56-.05,1.06.33,1.18.87v.02c.07.32.14.63.19.95v.02c.11.63-.31,1.22-.94,1.33-.63.11-1.22-.31-1.33-.94,0-.02,0-.04,0-.05Z"/>
      <path class="cls-1" d="m.56,57.85l.15-.98s.03-.05.06-.04c.03,0,.05.03.05.06l-.02.99c0,.07-.05.12-.12.12-.07,0-.12-.05-.12-.12,0,0,0-.01,0-.02Z"/>
      <path class="cls-1" d="m.85,55.9c.15-.98.28-1.96.4-2.94,0,0,0-.01.02-.01,0,0,.01,0,.01.01h0c-.14.98-.28,1.96-.39,2.94,0,0,0,.02-.02.02,0,0-.02,0-.02-.02h0Z"/>
      <path class="cls-1" d="m2.05,48.07l.2-.97c.02-.12.14-.19.25-.17.12.02.19.14.17.25,0,0,0,.02,0,.02l-.28.95c-.03.09-.12.15-.21.12-.09-.02-.14-.11-.12-.2Z"/>
      <path class="cls-1" d="m6.93,34.04l.46-.89c.11-.22.38-.31.6-.19.22.11.31.38.19.6h0s0,0,0,0l-.46.87h0c-.11.22-.38.31-.6.19-.22-.11-.3-.38-.19-.6Z"/>
      <path class="cls-1" d="m7.85,32.28l1.49-2.59c.13-.22.41-.3.63-.17.22.13.3.41.17.63h0s-.01.02-.01.02l-1.49,2.54v.02c-.14.21-.41.29-.63.16-.21-.13-.29-.4-.16-.61Z"/>
      <path class="cls-1" d="m12.09,25.55l.59-.8c.16-.22.46-.26.68-.1s.26.46.1.68h0s0,0,0,0l-.58.79h0c-.16.22-.46.26-.68.1-.21-.16-.26-.46-.1-.67Z"/>
      <path class="cls-1" d="m22.21,14.62l.76-.64c.2-.17.5-.14.67.06.17.2.14.5-.06.67h0s-.75.64-.75.64h0c-.2.17-.5.15-.67-.05-.17-.2-.14-.5.06-.67h0Z"/>
      <path class="cls-1" d="m23.75,13.36l2.37-1.81c.21-.16.51-.12.67.09.16.21.12.51-.09.67h0s-.02.01-.02.01l-2.34,1.78h-.02c-.21.17-.51.13-.67-.08-.16-.21-.12-.51.09-.67Z"/>
      <path class="cls-1" d="m30.23,8.76l.85-.52c.24-.15.55-.07.7.17.15.24.07.55-.17.7h0s0,0,0,0l-.84.5h0c-.24.15-.55.07-.69-.17-.14-.24-.07-.54.17-.69Z"/>
      <path class="cls-1" d="m43.74,2.44l.95-.3c.3-.1.62.07.72.37.1.3-.07.62-.37.72h0s0,0,0,0l-.93.29h0c-.3.1-.62-.07-.71-.37-.09-.3.07-.62.37-.71Z"/>
      <path class="cls-1" d="m45.64,1.85l2.89-.76c.3-.08.61.1.69.4.08.3-.1.61-.4.69h-.03s-2.83.77-2.83.77h-.03c-.31.09-.62-.09-.7-.4-.08-.31.1-.62.4-.7h0Z"/>
      <path class="cls-1" d="m53.42.15l.99-.14c.29-.04.56.16.6.45.04.29-.16.55-.44.6h0s-.97.15-.97.15h0c-.29.05-.57-.15-.61-.45-.05-.29.15-.57.45-.61,0,0,0,0,0,0Z"/>
      <path class="cls-1" d="m68.27.09l.98.09s0,0,0,0c0,0,0,0-.01,0l-.98-.08s-.02,0-.02-.02c0-.01,0-.02.02-.02h0Z"/>
    </g>
  </g>
</svg>