<?xml version="1.0" encoding="UTF-8"?>
<svg id="_Слой_2" data-name="Слой 2" xmlns="http://www.w3.org/2000/svg" viewBox="0 0 127.96 126.38">
  <defs>
    <style>
      .cls-1 {
        fill: #ffe36b;
        stroke-width: 0px;
      }
    </style>
  </defs>
  <g id="_планеты" data-name="планеты">
    <g>
      <polygon class="cls-1" points="2.75 79.05 2.08 76.17 2.08 76.16 2.09 76.16 2.75 79.05"/>
      <path class="cls-1" d="m1.13,71.31l-.15-.98c-.01-.09.05-.18.14-.19.09-.01.18.05.19.14,0,0,0,.01,0,.01l.08.98c0,.07-.05.14-.12.15-.07,0-.14-.04-.15-.11Z"/>
      <path class="cls-1" d="m0,56.38l.04-1.01c.02-.68.59-1.21,1.27-1.19.68.02,1.21.59,1.19,1.27,0,.07-.01.14-.02.2v.02s-.2.95-.2.95v.02c-.13.62-.74,1.02-1.36.89-.55-.11-.93-.61-.91-1.16Z"/>
      <path class="cls-1" d="m.09,54.37l.26-3.03c.07-.86.83-1.49,1.69-1.42.86.07,1.49.83,1.42,1.69,0,.08-.02.16-.04.24l-.02.07-.71,2.82-.02.06c-.18.7-.89,1.13-1.59.95-.63-.16-1.04-.75-.98-1.38Z"/>
      <path class="cls-1" d="m1.17,46.32l.22-1c.23-1.05,1.27-1.71,2.32-1.48,1.05.23,1.71,1.27,1.48,2.32-.02.07-.04.15-.06.21v.03s-.33.9-.33.9v.03c-.36.98-1.43,1.5-2.42,1.16-.91-.32-1.42-1.27-1.22-2.19Z"/>
      <path class="cls-1" d="m6.99,32.27l.54-.86c.5-.81,1.57-1.06,2.38-.55.76.47,1.02,1.44.64,2.23l-.02.04-.43.86v.02c-.45.88-1.51,1.23-2.39.8s-1.23-1.5-.8-2.38c.02-.05.05-.1.08-.15Z"/>
      <path class="cls-1" d="m8.08,30.56l1.72-2.51c.48-.7,1.44-.88,2.15-.4.66.46.86,1.34.48,2.03l-.04.07-1.42,2.52-.04.06c-.45.81-1.48,1.1-2.29.64-.81-.45-1.1-1.48-.64-2.29.02-.04.05-.09.08-.13Z"/>
      <path class="cls-1" d="m12.84,24.02l.63-.79c.48-.6,1.36-.7,1.96-.22.6.48.7,1.34.23,1.94v.02s-.6.76-.6.76v.02c-.49.61-1.37.73-1.98.25s-.73-1.36-.25-1.97c0,0,.01-.01.01-.02Z"/>
      <path class="cls-1" d="m23.43,13.23l.79-.63c.61-.49,1.5-.39,1.99.22.49.61.39,1.5-.22,1.99,0,0,0,0-.01,0l-.02.02-.76.59h-.02c-.61.49-1.5.38-1.98-.23-.47-.61-.37-1.48.23-1.97Z"/>
      <path class="cls-1" d="m25.02,11.99l2.46-1.76c.64-.46,1.52-.31,1.98.33.46.64.31,1.52-.33,1.98l-.05.04-2.35,1.68-.05.04c-.64.46-1.52.31-1.98-.33-.46-.64-.31-1.52.33-1.98h0Z"/>
      <path class="cls-1" d="m31.78,7.59l.89-.48c.66-.36,1.49-.11,1.85.55.35.65.12,1.46-.52,1.83h-.02s-.84.5-.84.5h-.02c-.66.39-1.5.17-1.89-.49-.38-.66-.16-1.5.5-1.89,0,0,.02-.01.03-.02Z"/>
      <path class="cls-1" d="m45.77,1.97l.97-.25c.58-.15,1.17.2,1.32.77.15.56-.18,1.14-.73,1.31h-.02s-.93.29-.93.29h-.02c-.58.18-1.2-.15-1.37-.73-.18-.58.15-1.2.73-1.37.01,0,.03,0,.04-.01Z"/>
      <path class="cls-1" d="m47.72,1.48l2.95-.63c.54-.12,1.08.23,1.19.77.11.53-.21,1.05-.73,1.18h-.05s-2.83.73-2.83.73h-.05c-.57.16-1.15-.19-1.29-.76-.14-.57.2-1.15.77-1.29.01,0,.03,0,.04,0Z"/>
      <path class="cls-1" d="m55.62.11l1-.1c.49-.05.94.31.99.8.05.48-.29.92-.77.98h-.02s-.96.14-.96.14h-.01c-.5.07-.97-.28-1.04-.78-.07-.5.28-.97.78-1.04,0,0,.02,0,.03,0Z"/>
      <path class="cls-1" d="m70.59.22l.99.13c.35.05.6.37.55.73-.05.35-.36.59-.7.56h-.01s-.97-.1-.97-.1h-.01c-.36-.04-.63-.36-.59-.73.04-.36.36-.63.73-.59,0,0,.02,0,.02,0Z"/>
      <path class="cls-1" d="m72.57.51l2.94.55c.31.06.51.36.46.67-.06.3-.34.5-.64.46h-.03s-2.9-.43-2.9-.43h-.03c-.34-.05-.58-.37-.53-.72s.37-.58.71-.53c0,0,.02,0,.02,0Z"/>
      <path class="cls-1" d="m80.34,2.28l.95.29c.24.07.38.33.31.57-.07.24-.32.37-.55.31h0s-.95-.25-.95-.25h0c-.25-.07-.4-.33-.34-.58s.33-.4.58-.34c0,0,.01,0,.02,0Z"/>
      <path class="cls-1" d="m94.1,7.94l.87.48c.19.1.26.34.15.53-.1.19-.34.26-.53.15h0s0,0,0,0l-.85-.48h0c-.19-.11-.25-.34-.15-.53.1-.18.34-.25.52-.15Z"/>
      <path class="cls-1" d="m95.83,8.92c.85.52,1.69,1.05,2.54,1.55.2.12.27.38.15.58s-.38.27-.58.15c0,0-.01,0-.02-.01h-.02c-.82-.55-1.66-1.06-2.48-1.59h-.02c-.18-.13-.24-.37-.12-.56.12-.18.36-.24.54-.13Z"/>
      <path class="cls-1" d="m102.49,13.26l.8.59c.26.19.31.54.12.8-.19.25-.54.31-.8.12-.01,0-.02-.02-.03-.02h0s-.75-.64-.75-.64h0c-.23-.2-.26-.54-.06-.76.18-.22.5-.25.73-.09Z"/>
      <path class="cls-1" d="m113.67,23.26l.66.76c.47.54.41,1.35-.12,1.82-.54.47-1.35.42-1.82-.12-.03-.03-.06-.07-.08-.1v-.02s-.57-.79-.57-.79v-.02c-.41-.56-.28-1.33.28-1.72.52-.37,1.23-.27,1.65.19Z"/>
      <path class="cls-1" d="m114.99,24.79c.63.79,1.24,1.59,1.86,2.39.5.64.38,1.56-.26,2.06-.64.5-1.56.38-2.06-.26-.02-.03-.05-.06-.07-.09l-.04-.06c-.53-.81-1.07-1.61-1.58-2.43l-.04-.06c-.39-.62-.21-1.45.42-1.84.58-.37,1.33-.23,1.75.29Z"/>
      <path class="cls-1" d="m119.66,31.39l.52.87c.46.78.2,1.78-.57,2.25-.78.46-1.78.21-2.25-.57-.01-.02-.03-.04-.04-.07v-.03s-.46-.85-.46-.85v-.02c-.43-.79-.13-1.76.66-2.18.76-.4,1.7-.13,2.14.6Z"/>
      <path class="cls-1" d="m125.28,45.44l.26.97c.18.69-.23,1.4-.92,1.58-.67.18-1.36-.21-1.56-.87v-.02s-.29-.92-.29-.92v-.02c-.21-.69.18-1.42.87-1.63.69-.21,1.42.18,1.63.87,0,.01,0,.03.01.04Z"/>
      <path class="cls-1" d="m125.78,47.39c.2.99.49,1.95.84,2.91.27.75-.12,1.59-.87,1.86s-1.59-.12-1.86-.87c-.04-.11-.07-.22-.08-.34v-.07c-.11-.96-.26-1.93-.51-2.86v-.05c-.2-.68.2-1.39.89-1.57.68-.19,1.39.22,1.57.9,0,.03.01.06.02.09Z"/>
      <path class="cls-1" d="m127.67,55.25l.13,1c.12.91-.52,1.74-1.43,1.86s-1.74-.52-1.86-1.43c0,0,0-.02,0-.03v-.03s-.11-.96-.11-.96v-.03c-.1-.9.55-1.72,1.45-1.81.89-.1,1.69.54,1.81,1.42Z"/>
      <path class="cls-1" d="m127.94,70.44l-.12,1.01c-.12.97-1,1.67-1.97,1.55s-1.67-1-1.55-1.97v-.02s.11-.95.11-.95v-.03c.12-.97,1-1.67,1.97-1.56.97.11,1.67.99,1.56,1.97h0Z"/>
      <path class="cls-1" d="m127.69,72.45c-.17,1-.33,2-.52,3-.18.95-1.1,1.57-2.05,1.39-.92-.18-1.53-1.04-1.4-1.95v-.09c.14-.95.31-1.9.46-2.84v-.08c.17-.96,1.08-1.62,2.05-1.46.96.16,1.62,1.07,1.46,2.03h0Z"/>
      <path class="cls-1" d="m125.93,80.38l-.29.97c-.26.87-1.18,1.36-2.05,1.1-.85-.26-1.34-1.14-1.12-1.98v-.03s.25-.93.25-.93v-.02c.24-.89,1.15-1.42,2.03-1.19.89.23,1.42,1.14,1.19,2.03,0,.02-.01.04-.02.06Z"/>
      <path class="cls-1" d="m119.43,93.99l-.45.89c-.19.38-.66.54-1.04.35s-.54-.66-.35-1.04c.01-.02.02-.04.03-.06h0s.51-.84.51-.84h0c.21-.35.67-.46,1.01-.25.32.2.44.62.27.95Z"/>
      <path class="cls-1" d="m118.53,95.77l-1.45,2.64c-.26.48-.87.66-1.35.39-.48-.26-.66-.87-.39-1.35.02-.03.04-.06.06-.09l.03-.04,1.68-2.39.02-.03c.26-.37.78-.46,1.15-.2.35.25.45.71.25,1.08Z"/>
      <path class="cls-1" d="m114.32,102.61l-.61.8c-.4.52-1.15.62-1.67.22s-.62-1.15-.22-1.67c0,0,.01-.01.02-.02v-.02s.62-.75.62-.75h.01c.41-.52,1.15-.6,1.66-.19.5.4.58,1.13.2,1.63Z"/>
      <path class="cls-1" d="m103.87,113.47l-.79.63c-.57.45-1.41.36-1.86-.22s-.36-1.41.22-1.86h.02s.76-.61.76-.61h.02c.57-.47,1.41-.37,1.86.2s.36,1.41-.22,1.86Z"/>
      <path class="cls-1" d="m102.27,114.7l-2.48,1.73c-.58.4-1.37.26-1.77-.32-.4-.57-.27-1.34.29-1.75l.05-.04,2.33-1.72.05-.04c.58-.43,1.41-.31,1.84.28.43.58.31,1.41-.28,1.84,0,0-.02.01-.03.02Z"/>
      <path class="cls-1" d="m95.46,119c-.3.16-.6.3-.9.45-.55.26-1.21.03-1.48-.52-.24-.51-.07-1.11.39-1.41h.02c.27-.19.54-.36.82-.53h.01c.55-.33,1.26-.15,1.58.4s.14,1.26-.41,1.58c-.01,0-.03.02-.04.03Z"/>
      <path class="cls-1" d="m81.32,123.88l-.97.21s-.06-.01-.06-.04c0-.03.01-.05.04-.06l.93-.33c.06-.02.13,0,.16.07.02.06,0,.13-.07.15,0,0-.01,0-.02,0Z"/>
      <path class="cls-1" d="m79.38,124.3c-.97.21-1.93.44-2.89.67,0,0-.01,0-.02,0s0-.01,0-.02h0c.96-.21,1.93-.43,2.88-.68,0,0,.02,0,.02.01,0,0,0,.02-.01.02,0,0,0,0,0,0Z"/>
      <path class="cls-1" d="m71.65,125.96l-.98.16c-.12.02-.23-.06-.25-.18-.02-.12.06-.23.18-.25,0,0,.02,0,.02,0l.98-.08c.1,0,.18.06.19.16,0,.09-.06.17-.14.19Z"/>
      <path class="cls-1" d="m56.79,126.37l-.99-.11c-.25-.03-.42-.25-.39-.49s.25-.42.5-.39h0s0,0,0,0l.97.12h0c.24.03.42.25.39.49-.03.24-.25.41-.49.39Z"/>
      <path class="cls-1" d="m54.82,126.13l-2.95-.48c-.25-.04-.42-.28-.38-.53.04-.25.28-.42.53-.38h0s.02,0,.02,0l2.9.49h.02c.25.04.41.28.37.52-.04.24-.27.41-.52.37Z"/>
      <path class="cls-1" d="m47.02,124.56l-.96-.27c-.26-.07-.41-.34-.34-.6.07-.26.34-.41.6-.34h0s0,0,0,0l.94.27h0c.26.08.41.34.33.6-.07.26-.34.4-.59.33Z"/>
      <path class="cls-1" d="m33.22,118.97l-.87-.49c-.23-.13-.31-.42-.18-.65s.42-.31.65-.18h0s.86.48.86.48h0c.23.13.31.42.18.65-.13.23-.42.31-.65.18h0Z"/>
      <path class="cls-1" d="m31.49,117.99l-2.54-1.57c-.22-.14-.29-.43-.15-.66.14-.22.43-.29.66-.15h0s.02.01.02.01l2.5,1.55h.02c.22.15.29.44.15.67-.14.22-.43.29-.66.15Z"/>
      <path class="cls-1" d="m24.89,113.55l-.79-.61c-.22-.17-.26-.49-.09-.71s.49-.26.71-.09h0s0,0,0,0l.77.61h0c.22.18.25.5.08.71-.17.22-.49.25-.7.08Z"/>
      <path class="cls-1" d="m14.19,103.17l-.62-.78c-.2-.25-.16-.61.09-.8s.61-.16.8.09h0s0,0,0,0l.61.77h0c.19.25.15.61-.09.81-.25.19-.6.15-.8-.09Z"/>
      <path class="cls-1" d="m12.96,101.6l-1.73-2.43c-.18-.25-.12-.61.13-.79.25-.18.6-.12.78.13l.02.02,1.72,2.38.02.02c.19.26.13.61-.13.8-.26.19-.61.13-.8-.13h0Z"/>
      <path class="cls-1" d="m8.61,94.93l-.48-.87c-.14-.26-.05-.58.21-.72.25-.14.57-.05.72.2h0s.48.86.48.86h0c.15.26.06.59-.2.74-.26.15-.58.06-.73-.2,0,0,0,0,0,0Z"/>
      <path class="cls-1" d="m3.28,81.06l-.26-.95s0-.01,0-.01c0,0,0,0,.01,0l.28.95s0,.02-.01.02-.02,0-.02-.01h0Z"/>
    </g>
  </g>
</svg>