<?xml version="1.0" encoding="UTF-8"?>
<svg id="_Слой_2" data-name="Слой 2" xmlns="http://www.w3.org/2000/svg" viewBox="0 0 128.43 126.63">
  <defs>
    <style>
      .cls-1 {
        fill: #ffe36b;
        stroke-width: 0px;
      }
    </style>
  </defs>
  <g id="_планеты" data-name="планеты">
    <g>
      <polygon class="cls-1" points="20.16 107.74 18.1 105.6 18.1 105.59 18.11 105.59 18.11 105.59 20.16 107.74"/>
      <path class="cls-1" d="m14.82,101.9l-.63-.77c-.06-.07-.05-.18.02-.24.07-.06.18-.05.24.02,0,0,0,0,0,.01l.57.8c.04.06.03.15-.03.19-.06.04-.14.03-.19-.02Z"/>
      <path class="cls-1" d="m6.25,89.63l-.48-.89c-.33-.6-.11-1.35.49-1.67s1.35-.11,1.67.49c.03.06.06.12.08.18v.02s.32.92.32.92v.02c.21.6-.11,1.25-.71,1.46-.54.18-1.11-.05-1.38-.54Z"/>
      <path class="cls-1" d="m5.3,87.85l-1.32-2.74c-.37-.78-.05-1.71.73-2.08s1.71-.05,2.08.73c.04.07.07.15.09.23l.02.07.82,2.79.02.06c.2.69-.19,1.42-.89,1.63-.63.18-1.28-.12-1.55-.69Z"/>
      <path class="cls-1" d="m2.14,80.37l-.32-.97c-.33-1.02.22-2.12,1.25-2.46s2.12.22,2.46,1.25c.02.07.04.14.06.22v.03s.19.94.19.94v.04c.21,1.02-.45,2.02-1.48,2.22-.95.19-1.87-.37-2.16-1.26Z"/>
      <path class="cls-1" d="m0,65.31l.02-1.02c.02-.95.81-1.71,1.76-1.69.89.02,1.61.72,1.68,1.59v.04s.07.96.07.96v.02c.07.98-.66,1.83-1.64,1.9-.98.07-1.83-.66-1.9-1.64,0-.06,0-.11,0-.17Z"/>
      <path class="cls-1" d="m.06,63.28l.2-3.03c.06-.85.79-1.5,1.64-1.44.8.05,1.42.71,1.44,1.5v.08s.07,2.89.07,2.89v.07c.02.93-.71,1.7-1.64,1.72-.93.02-1.7-.72-1.72-1.64,0-.05,0-.1,0-.15Z"/>
      <path class="cls-1" d="m.84,55.23l.14-1c.11-.76.81-1.29,1.58-1.19.76.11,1.28.8,1.19,1.55v.02s-.12.96-.12.96v.02c-.1.77-.8,1.31-1.57,1.22s-1.32-.8-1.22-1.57c0,0,0-.02,0-.02Z"/>
      <path class="cls-1" d="m4.46,40.56l.36-.94c.28-.73,1.09-1.1,1.83-.83.73.28,1.1,1.09.83,1.83,0,0,0,0,0,.01v.03s-.37.9-.37.9v.02c-.29.72-1.11,1.08-1.84.79-.72-.28-1.07-1.09-.8-1.81Z"/>
      <path class="cls-1" d="m5.19,38.68l1.22-2.77c.32-.72,1.15-1.04,1.87-.72.72.32,1.04,1.15.72,1.87l-.03.06-1.17,2.65-.03.06c-.32.72-1.15,1.04-1.87.73s-1.04-1.15-.73-1.87Z"/>
      <path class="cls-1" d="m8.78,31.45l.52-.87c.39-.65,1.23-.86,1.88-.47.64.38.85,1.2.49,1.84v.02s-.49.84-.49.84v.02c-.38.66-1.23.9-1.89.53-.66-.37-.9-1.22-.53-1.88,0,0,.01-.02.02-.03Z"/>
      <path class="cls-1" d="m17.96,19.5l.71-.71c.42-.42,1.1-.43,1.53,0,.41.41.43,1.07.04,1.5h-.01s-.65.73-.65.73h-.01c-.41.46-1.11.49-1.56.08-.45-.41-.48-1.11-.07-1.56,0,0,.02-.02.03-.03Z"/>
      <path class="cls-1" d="m19.39,18.08l2.22-2.04c.41-.38,1.04-.35,1.42.06.37.4.35,1.01-.03,1.39l-.04.03-2.07,2.05-.03.03c-.42.41-1.09.41-1.5,0s-.41-1.09,0-1.5c0,0,.02-.02.03-.03Z"/>
      <path class="cls-1" d="m25.49,12.88l.81-.6c.4-.3.96-.21,1.26.19.29.39.21.94-.16,1.24h-.01s-.76.62-.76.62h-.01c-.4.32-.97.26-1.29-.14s-.25-.97.15-1.29c0,0,.02-.01.03-.02Z"/>
      <path class="cls-1" d="m38.44,5.36l.92-.39c.33-.14.71.01.85.34.14.32,0,.69-.32.84h-.01s-.89.42-.89.42h0c-.33.16-.73.01-.88-.32-.15-.33,0-.73.32-.88,0,0,.01,0,.02,0Z"/>
      <path class="cls-1" d="m40.28,4.59l2.81-1.02c.3-.11.62.04.73.34.11.29-.04.61-.32.72h-.03s-2.72,1.12-2.72,1.12h-.03c-.32.14-.69-.01-.82-.33-.13-.32.02-.69.34-.82,0,0,.02,0,.02,0Z"/>
      <path class="cls-1" d="m47.87,2.16l.97-.24c.25-.06.49.09.55.33.06.24-.08.48-.32.55h0s-.94.27-.94.27h0c-.25.07-.51-.07-.59-.32-.07-.25.07-.51.33-.59,0,0,.01,0,.02,0Z"/>
      <path class="cls-1" d="m62.6.04l.99-.03c.22,0,.4.16.4.38,0,.22-.16.4-.38.4h0l-.98.02h0c-.21,0-.39-.17-.39-.38,0-.21.16-.39.38-.39Z"/>
      <path class="cls-1" d="m64.58,0c.99.01,1.99.05,2.98.04.23,0,.42.19.42.42s-.19.42-.42.42c0,0-.01,0-.02,0h-.02c-.98-.05-1.96-.06-2.94-.09h-.02c-.22,0-.39-.19-.38-.41,0-.22.19-.39.4-.38Z"/>
      <path class="cls-1" d="m72.53.35l.99.1c.31.03.54.31.51.63s-.31.54-.63.51c-.01,0-.03,0-.04,0h0s-.97-.16-.97-.16h0c-.29-.05-.49-.33-.44-.62.05-.28.31-.47.58-.45Z"/>
      <path class="cls-1" d="m87.25,3.27l.96.31c.68.22,1.04.95.82,1.63-.22.68-.95,1.04-1.63.82-.04-.01-.08-.03-.12-.05h-.02s-.88-.4-.88-.4h-.02c-.62-.29-.9-1.02-.62-1.64.26-.58.92-.86,1.52-.67Z"/>
      <path class="cls-1" d="m89.16,3.91c.94.35,1.88.73,2.82,1.11.75.3,1.12,1.15.82,1.9-.3.75-1.15,1.12-1.9.82-.04-.01-.07-.03-.1-.05l-.06-.03c-.87-.42-1.74-.84-2.6-1.28l-.06-.03c-.66-.34-.92-1.14-.58-1.8.31-.61,1.03-.88,1.66-.64Z"/>
      <path class="cls-1" d="m96.54,7.22l.89.49c.79.44,1.08,1.43.65,2.23-.44.79-1.43,1.08-2.23.65-.02-.01-.04-.03-.07-.04l-.02-.02-.82-.5h-.02c-.76-.48-1-1.48-.53-2.23.45-.73,1.4-.98,2.15-.57Z"/>
      <path class="cls-1" d="m108.52,16.45l.72.71c.51.5.51,1.32.01,1.83-.49.5-1.28.51-1.79.05l-.02-.02-.71-.65h-.01c-.53-.5-.57-1.33-.08-1.86.49-.53,1.32-.57,1.85-.08,0,0,.02.02.03.03Z"/>
      <path class="cls-1" d="m109.95,17.87c.67.75,1.42,1.43,2.21,2.08.62.51.71,1.43.2,2.05-.51.62-1.43.71-2.05.2-.09-.08-.17-.16-.24-.25l-.04-.05c-.58-.78-1.2-1.53-1.89-2.21l-.04-.04c-.51-.49-.52-1.3-.03-1.81.49-.51,1.3-.52,1.81-.03.02.02.04.04.06.06Z"/>
      <path class="cls-1" d="m115.58,23.68l.63.8c.56.72.44,1.76-.28,2.33-.72.56-1.76.44-2.33-.28,0,0-.01-.02-.02-.02l-.02-.03-.58-.77-.02-.02c-.54-.73-.4-1.76.33-2.3.72-.54,1.73-.4,2.28.3Z"/>
      <path class="cls-1" d="m123.54,36.61l.41.93c.4.9-.01,1.94-.91,2.34-.9.4-1.94-.01-2.34-.91v-.02s-.4-.88-.4-.88v-.03c-.41-.9,0-1.94.89-2.34.9-.4,1.94,0,2.34.9h0Z"/>
      <path class="cls-1" d="m124.34,38.48c.36.95.74,1.89,1.08,2.85.33.91-.15,1.91-1.06,2.24-.88.31-1.84-.12-2.2-.97l-.03-.08c-.37-.89-.71-1.78-1.06-2.68l-.03-.08c-.35-.91.1-1.94,1.01-2.29.91-.35,1.94.1,2.29,1.01h0Z"/>
      <path class="cls-1" d="m126.87,46.19l.24.98c.22.88-.32,1.77-1.2,1.99-.86.21-1.73-.3-1.97-1.14v-.03s-.27-.92-.27-.92v-.02c-.26-.88.25-1.8,1.13-2.05s1.8.26,2.05,1.14c0,.02.01.04.02.06Z"/>
      <path class="cls-1" d="m128.2,61.22l.07,1c.03.43-.29.8-.72.83-.43.03-.8-.29-.83-.72,0-.02,0-.04,0-.07h0s.02-.99.02-.99h0c0-.42.34-.74.75-.73.38,0,.69.31.72.68Z"/>
      <path class="cls-1" d="m128.33,63.21l.1,3.01c.02.55-.41,1.01-.96,1.03-.55.02-1.01-.41-1.03-.96,0-.04,0-.07,0-.11v-.05s.23-2.91.23-2.91v-.04c.04-.46.44-.8.89-.76.42.03.75.38.76.8Z"/>
      <path class="cls-1" d="m128.18,71.24l-.12,1c-.08.65-.67,1.12-1.32,1.04s-1.12-.67-1.04-1.32c0,0,0-.02,0-.03v-.02s.14-.96.14-.96v-.02c.1-.64.7-1.09,1.34-.99.63.09,1.07.67,1,1.3Z"/>
      <path class="cls-1" d="m124.72,85.91l-.36.94c-.26.68-1.03,1.02-1.71.76-.68-.26-1.02-1.03-.76-1.71v-.02s.35-.9.35-.9v-.02c.27-.68,1.04-1.02,1.72-.76.68.26,1.02,1.03.76,1.71h0Z"/>
      <path class="cls-1" d="m123.97,87.78l-1.25,2.75c-.29.64-1.05.92-1.69.63-.63-.29-.91-1.02-.65-1.66l.02-.06,1.13-2.67.02-.06c.28-.67,1.06-.98,1.72-.7s.98,1.05.7,1.72c0,0-.01.02-.01.03Z"/>
      <path class="cls-1" d="m120.29,94.94c-.17.29-.36.57-.55.85-.34.51-1.03.65-1.54.31-.47-.31-.62-.92-.38-1.41v-.02c.15-.29.3-.58.45-.86v-.02c.32-.56,1.02-.76,1.57-.46.56.31.76,1.01.46,1.57,0,.01-.02.03-.03.04Z"/>
      <path class="cls-1" d="m110.6,106.35l-.73.67s-.06.02-.08,0c-.02-.02-.02-.05,0-.07l.63-.76c.04-.05.12-.06.17-.02.05.04.06.12.02.17,0,0,0,0-.01.01Z"/>
      <path class="cls-1" d="m109.15,107.69c-.73.67-1.44,1.36-2.14,2.05,0,0-.01,0-.02,0,0,0,0-.01,0-.02h0c.72-.68,1.44-1.35,2.14-2.05,0,0,.02,0,.02,0,0,0,0,.02,0,.02,0,0,0,0,0,0Z"/>
      <path class="cls-1" d="m103.33,113.06l-.76.64c-.09.08-.23.06-.3-.03-.08-.09-.06-.23.03-.3,0,0,.01,0,.02-.01l.81-.57c.08-.06.19-.04.24.04.05.07.04.18-.03.24Z"/>
      <path class="cls-1" d="m90.76,120.97l-.91.41c-.23.1-.49,0-.59-.23-.1-.23,0-.49.23-.59h0s0,0,0,0l.9-.39h0c.22-.1.49,0,.58.23.1.22,0,.48-.22.58Z"/>
      <path class="cls-1" d="m88.94,121.77l-2.78,1.09c-.24.09-.51-.02-.6-.26-.09-.24.02-.51.26-.6h0s.02,0,.02,0l2.75-1.05h.02c.23-.1.49.02.58.25.09.23-.03.49-.26.58Z"/>
      <path class="cls-1" d="m81.42,124.38l-.96.26c-.26.07-.53-.08-.6-.34-.07-.26.08-.53.34-.6h0s0,0,0,0l.95-.25h0c.26-.07.52.08.59.34.07.26-.09.52-.34.59Z"/>
      <path class="cls-1" d="m66.7,126.6l-.99.02c-.26,0-.48-.2-.49-.46s.2-.48.47-.49h0s.98-.03.98-.03h0c.26,0,.48.2.49.47,0,.26-.2.48-.46.49h0Z"/>
      <path class="cls-1" d="m64.71,126.63l-2.98-.06c-.26,0-.47-.22-.47-.49,0-.26.22-.47.49-.47h.02s2.94.07,2.94.07h.02c.26,0,.47.22.47.49,0,.26-.22.47-.49.47Z"/>
      <path class="cls-1" d="m56.77,126.18l-.99-.13c-.28-.04-.48-.29-.44-.57.04-.28.29-.48.57-.44h0s0,0,0,0l.97.13h0c.28.04.47.29.43.57-.04.27-.29.47-.56.43Z"/>
      <path class="cls-1" d="m42.28,122.68l-.93-.35c-.29-.11-.44-.44-.33-.74.11-.29.44-.44.74-.33h0s0,0,0,0l.91.35h0c.29.12.44.45.32.74-.11.29-.44.44-.73.33Z"/>
      <path class="cls-1" d="m40.42,121.95l-2.73-1.21c-.28-.13-.41-.46-.29-.74.13-.28.46-.41.74-.29h.02s2.69,1.18,2.69,1.18h.02c.29.14.42.48.3.77s-.46.42-.75.3h0Z"/>
      <path class="cls-1" d="m33.28,118.43l-.86-.5c-.25-.15-.34-.47-.19-.73.15-.25.47-.34.72-.19h0s.85.49.85.49h0c.26.15.35.48.2.73-.15.26-.47.35-.73.2,0,0,0,0,0,0Z"/>
      <path class="cls-1" d="m21.64,109.2l-.71-.69s0,0,0-.01c0,0,0,0,.01,0l.72.67s0,.02,0,.03c0,0-.02,0-.03,0,0,0,0,0,0,0Z"/>
    </g>
  </g>
</svg>