<?xml version="1.0" encoding="UTF-8"?>
<svg id="_Слой_2" data-name="Слой 2" xmlns="http://www.w3.org/2000/svg" viewBox="0 0 124.37 56.2">
  <defs>
    <style>
      .cls-1 {
        fill: #ffe36b;
        stroke-width: 0px;
      }
    </style>
  </defs>
  <g id="_планеты" data-name="планеты">
    <g>
      <path class="cls-1" d="m123.28,56.15l-2.81-1.06c-.5-.19-.76-.75-.57-1.26s.75-.76,1.26-.57c.03.01.07.03.1.04l2.67,1.37c.4.2.55.69.35,1.08-.19.37-.62.53-1,.39Z"/>
      <path class="cls-1" d="m115.8,53.27l-.93-.37c-.64-.25-.95-.98-.7-1.62.25-.64.98-.95,1.62-.7.03.01.06.03.09.04l.9.44c.6.29.85,1.02.55,1.62-.28.57-.95.82-1.53.59Z"/>
      <path class="cls-1" d="m101.9,47.63l-.92-.39c-.87-.36-1.28-1.36-.92-2.23.36-.87,1.36-1.28,2.23-.92.02,0,.05.02.07.03l.91.43c.84.4,1.2,1.4.81,2.24-.38.82-1.34,1.18-2.17.84Z"/>
      <path class="cls-1" d="m100.05,46.86l-2.77-1.16c-.91-.38-1.34-1.43-.96-2.34.38-.91,1.43-1.34,2.34-.96.02,0,.05.02.07.03l2.72,1.28c.86.4,1.23,1.43.83,2.3-.39.84-1.38,1.21-2.23.86Z"/>
      <path class="cls-1" d="m92.68,43.74l-.92-.39c-.95-.41-1.4-1.51-.99-2.47.41-.95,1.51-1.4,2.47-.99.01,0,.03.01.05.02l.91.42c.94.43,1.35,1.54.92,2.48-.42.92-1.5,1.33-2.43.94Z"/>
      <path class="cls-1" d="m78.92,37.78l-.92-.4c-1.01-.44-1.47-1.62-1.02-2.62.44-1.01,1.62-1.47,2.62-1.03h.02s.91.42.91.42c1,.45,1.45,1.62,1,2.63-.45,1-1.61,1.44-2.61,1.01Z"/>
      <path class="cls-1" d="m77.09,36.97l-2.74-1.22c-1.01-.45-1.46-1.63-1.01-2.63.45-1.01,1.62-1.46,2.63-1.02l2.74,1.21c1.01.45,1.46,1.62,1.02,2.63-.45,1.01-1.63,1.46-2.63,1.02h0Z"/>
      <path class="cls-1" d="m69.78,33.72l-.91-.41c-1-.45-1.45-1.62-1-2.62s1.61-1.45,2.61-1.01l.92.4c1,.44,1.46,1.61,1.02,2.61s-1.61,1.46-2.61,1.02h0Z"/>
      <path class="cls-1" d="m56.08,27.61l-.91-.41c-.98-.44-1.41-1.59-.97-2.57.44-.97,1.57-1.4,2.54-.98l.92.4c.99.43,1.44,1.58,1.01,2.56-.43.99-1.58,1.44-2.56,1.01,0,0-.02,0-.03-.01Z"/>
      <path class="cls-1" d="m54.26,26.79l-2.73-1.23c-.96-.43-1.39-1.57-.96-2.53.43-.95,1.55-1.38,2.5-.97l2.75,1.2c.98.43,1.43,1.56,1,2.54s-1.56,1.43-2.54,1c0,0-.02,0-.03-.01Z"/>
      <path class="cls-1" d="m46.97,23.49l-.91-.41c-.94-.42-1.36-1.53-.93-2.47.42-.93,1.51-1.35,2.45-.94l.92.4c.95.41,1.39,1.52.97,2.47s-1.52,1.39-2.47.97c0,0-.02,0-.02-.01Z"/>
      <path class="cls-1" d="m33.31,17.29l-.91-.42c-.87-.4-1.25-1.42-.85-2.29.39-.86,1.4-1.24,2.25-.87l.92.39c.88.38,1.29,1.4.91,2.29s-1.4,1.29-2.29.91c0,0-.03-.01-.04-.02Z"/>
      <path class="cls-1" d="m31.49,16.46l-2.73-1.25c-.85-.39-1.22-1.39-.83-2.23.38-.83,1.36-1.2,2.19-.85l2.76,1.18c.87.37,1.28,1.38.9,2.26-.37.87-1.38,1.28-2.26.9,0,0-.03-.01-.04-.02Z"/>
      <path class="cls-1" d="m24.21,13.13l-.91-.42c-.81-.37-1.16-1.33-.79-2.13.36-.79,1.29-1.14,2.09-.81l.92.39c.83.35,1.21,1.3.86,2.13-.35.83-1.3,1.21-2.13.86-.01,0-.03-.01-.05-.02Z"/>
      <path class="cls-1" d="m10.6,6.82l-.91-.43c-.67-.32-.96-1.12-.65-1.8.31-.66,1.08-.95,1.74-.67l.92.38c.7.29,1.03,1.09.74,1.79-.29.7-1.09,1.03-1.79.74-.02,0-.04-.02-.06-.02Z"/>
      <path class="cls-1" d="m8.79,5.97l-2.71-1.28c-.63-.3-.9-1.05-.6-1.68.29-.61,1.01-.88,1.62-.63l2.77,1.15c.68.28,1,1.06.71,1.74-.28.68-1.06,1-1.73.71-.02,0-.04-.02-.06-.02Z"/>
      <path class="cls-1" d="m1.55,2.57l-.91-.43C.08,1.88-.16,1.21.11.64.36.1,1.01-.14,1.56.09l.92.38c.58.24.86.91.62,1.5-.24.58-.91.86-1.5.62-.01,0-.03-.01-.05-.02Z"/>
    </g>
  </g>
</svg>