<?xml version="1.0" encoding="UTF-8"?>
<svg xmlns="http://www.w3.org/2000/svg" xmlns:xlink="http://www.w3.org/1999/xlink" viewBox="0 0 175.67 160.08">
  <defs>
    <style>
      .cls-1 {
        fill: url(#_Безымянный_градиент_504);
        mix-blend-mode: screen;
        opacity: .5;
      }

      .cls-1, .cls-2, .cls-3, .cls-4, .cls-5, .cls-6, .cls-7, .cls-8, .cls-9, .cls-10, .cls-11, .cls-12 {
        stroke-width: 0px;
      }

      .cls-13 {
        isolation: isolate;
      }

      .cls-2 {
        filter: url(#outer-glow-5);
      }

      .cls-2, .cls-4, .cls-5, .cls-6, .cls-7, .cls-8, .cls-9, .cls-10, .cls-11, .cls-12 {
        fill: #edd1de;
      }

      .cls-3, .cls-14, .cls-15 {
        fill: none;
      }

      .cls-4 {
        filter: url(#outer-glow-4);
      }

      .cls-14 {
        stroke: #e5518f;
        stroke-linecap: round;
        stroke-linejoin: round;
        stroke-width: 3px;
      }

      .cls-6 {
        filter: url(#outer-glow-9);
      }

      .cls-7 {
        opacity: .1;
      }

      .cls-8 {
        filter: url(#outer-glow-2);
      }

      .cls-9 {
        filter: url(#outer-glow-3);
      }

      .cls-10 {
        filter: url(#outer-glow-7);
      }

      .cls-11 {
        filter: url(#outer-glow-6);
      }

      .cls-15 {
        filter: url(#outer-glow-1);
        stroke: #edd1de;
        stroke-miterlimit: 10;
        stroke-width: 3.5px;
      }

      .cls-12 {
        filter: url(#outer-glow-8);
      }
    </style>
    <filter id="outer-glow-1" filterUnits="userSpaceOnUse">
      <feOffset dx="0" dy="0"/>
      <feGaussianBlur result="blur" stdDeviation="6"/>
      <feFlood flood-color="#deb5d5" flood-opacity=".78"/>
      <feComposite in2="blur" operator="in"/>
      <feComposite in="SourceGraphic"/>
    </filter>
    <radialGradient id="_Безымянный_градиент_504" data-name="Безымянный градиент 504" cx="4696.65" cy="-945.4" fx="4696.65" fy="-945.4" r="6.44" gradientTransform="translate(63802.74 10287.89) rotate(-90.25) scale(2.18 67.35) skewX(-7.37)" gradientUnits="userSpaceOnUse">
      <stop offset="0" stop-color="#e60b7c"/>
      <stop offset=".2" stop-color="#9b0753"/>
      <stop offset=".44" stop-color="#480327"/>
      <stop offset=".61" stop-color="#14000a"/>
      <stop offset=".7" stop-color="#000"/>
    </radialGradient>
    <filter id="outer-glow-2" filterUnits="userSpaceOnUse">
      <feOffset dx="0" dy="0"/>
      <feGaussianBlur result="blur-2" stdDeviation="6"/>
      <feFlood flood-color="#deb5d5" flood-opacity=".61"/>
      <feComposite in2="blur-2" operator="in"/>
      <feComposite in="SourceGraphic"/>
    </filter>
    <filter id="outer-glow-3" filterUnits="userSpaceOnUse">
      <feOffset dx="0" dy="0"/>
      <feGaussianBlur result="blur-3" stdDeviation="6"/>
      <feFlood flood-color="#deb5d5" flood-opacity=".61"/>
      <feComposite in2="blur-3" operator="in"/>
      <feComposite in="SourceGraphic"/>
    </filter>
    <filter id="outer-glow-4" filterUnits="userSpaceOnUse">
      <feOffset dx="0" dy="0"/>
      <feGaussianBlur result="blur-4" stdDeviation="6"/>
      <feFlood flood-color="#deb5d5" flood-opacity=".61"/>
      <feComposite in2="blur-4" operator="in"/>
      <feComposite in="SourceGraphic"/>
    </filter>
    <filter id="outer-glow-5" filterUnits="userSpaceOnUse">
      <feOffset dx="0" dy="0"/>
      <feGaussianBlur result="blur-5" stdDeviation="6"/>
      <feFlood flood-color="#deb5d5" flood-opacity=".61"/>
      <feComposite in2="blur-5" operator="in"/>
      <feComposite in="SourceGraphic"/>
    </filter>
    <filter id="outer-glow-6" filterUnits="userSpaceOnUse">
      <feOffset dx="0" dy="0"/>
      <feGaussianBlur result="blur-6" stdDeviation="6"/>
      <feFlood flood-color="#deb5d5" flood-opacity=".61"/>
      <feComposite in2="blur-6" operator="in"/>
      <feComposite in="SourceGraphic"/>
    </filter>
    <filter id="outer-glow-7" filterUnits="userSpaceOnUse">
      <feOffset dx="0" dy="0"/>
      <feGaussianBlur result="blur-7" stdDeviation="6"/>
      <feFlood flood-color="#deb5d5" flood-opacity=".61"/>
      <feComposite in2="blur-7" operator="in"/>
      <feComposite in="SourceGraphic"/>
    </filter>
    <filter id="outer-glow-8" filterUnits="userSpaceOnUse">
      <feOffset dx="0" dy="0"/>
      <feGaussianBlur result="blur-8" stdDeviation="6"/>
      <feFlood flood-color="#deb5d5" flood-opacity=".61"/>
      <feComposite in2="blur-8" operator="in"/>
      <feComposite in="SourceGraphic"/>
    </filter>
    <filter id="outer-glow-9" filterUnits="userSpaceOnUse">
      <feOffset dx="0" dy="0"/>
      <feGaussianBlur result="blur-9" stdDeviation="6"/>
      <feFlood flood-color="#deb5d5" flood-opacity=".61"/>
      <feComposite in2="blur-9" operator="in"/>
      <feComposite in="SourceGraphic"/>
    </filter>
  </defs>
  <g class="cls-13">
    <g id="_Слой_2" data-name="Слой 2">
      <g id="_планеты" data-name="планеты">
        <g>
          <path class="cls-7" d="m73.62,147.36c-13.08-3.8-25.69-10.39-36.41-18.48C-4.83,97.13,5.01,27.76,53.07,7.33,67.94,1.01,84.8-.25,100.57,2.98c22.15,4.54,42.54,18.11,54.24,37.46,28.26,46.76-11.85,117.48-68.11,109.73-4.37-.6-8.75-1.55-13.07-2.81Z"/>
          <path class="cls-7" d="m74.7,138.08c-11.35-3.23-22.28-8.93-31.54-15.98C6.87,94.43,16.17,32.91,58.26,14.32c13.02-5.75,27.72-7.05,41.43-4.35,19.25,3.79,36.88,15.59,46.87,32.6,24.13,41.1-11.55,104.13-60.5,97.86-3.8-.49-7.61-1.28-11.36-2.35Z"/>
          <path class="cls-15" d="m103.46,126.57c-9.91,2.01-20.47,2.04-30.32.41-38.59-6.36-56.06-55.37-31.51-85.39,7.59-9.29,18.24-15.94,29.73-19.26,16.13-4.66,34.22-2.77,48.59,5.91,34.72,20.99,32.75,81.33-6.92,95.65-3.08,1.11-6.29,2-9.56,2.66Z"/>
          <rect class="cls-1" x="32.07" y="8.42" width="115.45" height="129.11"/>
          <path class="cls-14" d="m97.52,26.96c-2.04,22.77-1.04,46.77.96,69.77,0,4-3,14-.23,20.04"/>
          <path class="cls-14" d="m82.39,25.45c.18.96-.42,2.4.17,3.21,1.24,1.71,1.22,4.13-.04,5.82-.38.51-.88,1.01-.89,1.63-.02,1.37,2.29,2.05,2.18,3.42-.08.98-1.32,1.42-1.99,2.18-.83.94-.7,2.33-.28,3.48.43,1.15,1.12,2.23,1.3,3.43.13.83.01,1.67-.11,2.5-.51,4.05-3.51,8.05,1.49,11.05l-3,3c0,2,2,2,2,3,2,9,0,22-1,28,0,5,2,12,.76,18.35"/>
          <path class="cls-14" d="m131.97,78.95c-.96.18-2.4-.42-3.21.17-1.71,1.24-4.13,1.22-5.82-.04-.51-.38-1.01-.88-1.63-.89-18.49-.8-36.49,4.2-54.49-.8-3,0-4,2-5,4-4-5-13-1-18.89-1.73"/>
          <path class="cls-14" d="m131.74,65.31c-.96.18-2.4-.42-3.21.17-1.71,1.24-4.13,1.22-5.82-.04-.51-.38-1.01-.88-1.63-.89-1.37-.02-2.05,2.29-3.42,2.18-.98-.08-1.42-1.32-2.18-1.99-18.09.24-36.09,2.24-54.09.24-5,0-12,3-18.38.73"/>
          <path class="cls-8" d="m113.03,116.06c-3.08,1.11-6.29,2-9.56,2.66-9.91,2.01-20.47,2.04-30.32.41-24.95-4.11-41.07-26.05-42.71-49.16-1.89,25.77,14.94,52.43,42.71,57.01,9.85,1.62,20.41,1.6,30.32-.41,3.28-.67,6.48-1.55,9.56-2.66,22.35-8.07,32.73-30.76,31.32-52.78-1.23,19.35-11.62,37.81-31.32,44.93Z"/>
          <path class="cls-9" d="m106.39,117.63c.64-.35,1.27-.75,1.71-1.34.43-.58.63-1.39.33-2.06-.39-.86-1.44-1.18-2.37-1.3-3.76-.48-6.36,1.07-9.43,2.89-1.99,1.18-6.05,4.79-.95,5.49,1.06.15,2.13-.13,3.14-.47,2.54-.85,5.22-1.92,7.57-3.22Z"/>
          <path class="cls-4" d="m114.8,108.56c.5-.45.99-1.13.71-1.74-.31-.67-1.26-.68-1.97-.49-2.12.56-4.04,1.76-4.24,4.14-.1,1.16,5.26-1.69,5.5-1.9Z"/>
          <path class="cls-2" d="m126.98,110.44c.29-.49.55-1.13.22-1.6-.29-.41-.87-.45-1.37-.41-3,.19-7.16,1.72-8.51,4.68-1.11,2.43.65,3.87,2.89,3.3,2.53-.64,5.5-3.84,6.77-5.97Z"/>
          <path class="cls-11" d="m131.59,95.25c2.91,1.88-.91,7.24-2.79,8.56-.68.48-1.49.88-2.32.82-.83-.06-1.67-.7-1.69-1.54-.01-.49.24-.95.49-1.37,1.11-1.9,3.02-7.95,5.87-6.71.16.07.31.15.45.24Z"/>
          <path class="cls-10" d="m84.89,116.56c.4-.02.86-.02,1.16.25.35.31.34.89.1,1.29-.24.4-.65.67-1.05.9-4.11,2.39-9.23,2.96-13.77,1.53-1.12-.35-2.39-1.09-2.38-2.26.03-2.2,14.07-1.62,15.94-1.71Z"/>
          <path class="cls-12" d="m138.58,83.24c.29,1.71-.37,11.81-3.89,9.84-3.04-1.69.54-8.12,1.11-10.14.18-.65.49-1.42,1.15-1.55.9-.17,1.47.94,1.62,1.84Z"/>
          <path class="cls-6" d="m141.32,83.39c-1.87,1-1.3-8.17-1.19-9.19.06-.59.43-1.36,1-1.2.39.11.52.59.58.99.4,2.77.43,5.6.1,8.38-.05.39-.14.84-.48,1.02Z"/>
          <g>
            <path class="cls-7" d="m38.72,146.86c1.1-.85,2.41-1.5,3.73-1.9,5.17-1.57,10.32,3.44,9.11,8.65-.37,1.61-1.29,3.09-2.51,4.2-1.71,1.56-4.07,2.43-6.38,2.23-5.58-.48-9.02-8.08-4.98-12.27.31-.33.66-.63,1.02-.91Z"/>
            <path class="cls-7" d="m39.55,155.82c-.55-.86-.93-1.86-1.14-2.84-.8-3.87,3.18-7.29,6.9-6.07,1.15.38,2.16,1.14,2.89,2.1,1.02,1.35,1.5,3.12,1.21,4.79-.72,4.03-6.48,6.04-9.27,2.82-.22-.25-.42-.52-.6-.8Z"/>
            <path class="cls-7" d="m43.17,156.4c-.72-.21-1.41-.57-2-1.02-2.31-1.75-1.77-5.56.87-6.69.82-.35,1.75-.42,2.61-.24,1.22.25,2.34,1,2.98,2.06,1.55,2.57-.65,6.46-3.75,6.04-.24-.03-.48-.09-.72-.15Z"/>
            <path class="cls-5" d="m43.82,150.02c.22-.54.28-1.15.18-1.73.1.69.69,1.55,1.12,2.08.67.82,1.83,1.92,3.01,1.75-.99.15-1.92.7-2.53,1.49-.55.71-1.3,1.76-1.18,2.7-.2-1.51-.8-2.88-2.34-3.4-.75-.25-1.56-.29-2.35-.32.73-.09,1.47-.21,2.11-.57.7-.4,1.45-.99,1.83-1.71.05-.09.09-.19.13-.29Z"/>
          </g>
          <g>
            <path class="cls-7" d="m5.02,130.56c1.99-1.54,4.35-2.71,6.73-3.43,9.33-2.83,18.63,6.2,16.44,15.61-.67,2.91-2.32,5.57-4.52,7.58-3.09,2.82-7.34,4.39-11.51,4.03-10.07-.87-16.27-14.57-8.99-22.14.57-.59,1.19-1.14,1.84-1.65Z"/>
            <path class="cls-7" d="m6.52,146.71c-.99-1.55-1.69-3.35-2.05-5.13-1.44-6.98,5.75-13.16,12.46-10.95,2.08.68,3.9,2.06,5.22,3.79,1.85,2.44,2.71,5.64,2.17,8.65-1.3,7.28-11.68,10.89-16.72,5.08-.39-.45-.75-.94-1.08-1.45Z"/>
            <path class="cls-7" d="m13.04,147.76c-1.3-.38-2.55-1.03-3.61-1.83-4.17-3.15-3.2-10.04,1.57-12.06,1.48-.63,3.15-.75,4.71-.43,2.2.45,4.22,1.8,5.38,3.72,2.81,4.64-1.18,11.66-6.76,10.89-.43-.06-.87-.15-1.3-.28Z"/>
            <path class="cls-5" d="m14.23,136.24c.4-.98.51-2.07.33-3.12.19,1.25,1.25,2.79,2.03,3.75,1.2,1.47,3.3,3.47,5.44,3.16-1.79.26-3.46,1.26-4.57,2.69-.99,1.28-2.35,3.17-2.12,4.87-.36-2.72-1.44-5.2-4.21-6.13-1.36-.45-2.81-.52-4.24-.58,1.31-.17,2.65-.38,3.8-1.04,1.26-.72,2.62-1.79,3.31-3.09.09-.17.17-.34.24-.52Z"/>
          </g>
          <g>
            <path class="cls-7" d="m39.26,146.86c1.1-.85,2.41-1.5,3.73-1.9,5.17-1.57,10.32,3.44,9.11,8.65-.37,1.61-1.29,3.09-2.51,4.2-1.71,1.56-4.07,2.43-6.38,2.23-5.58-.48-9.02-8.08-4.98-12.27.31-.33.66-.63,1.02-.91Z"/>
            <path class="cls-7" d="m40.09,155.82c-.55-.86-.93-1.86-1.14-2.84-.8-3.87,3.18-7.29,6.9-6.07,1.15.38,2.16,1.14,2.89,2.1,1.02,1.35,1.5,3.12,1.21,4.79-.72,4.03-6.48,6.04-9.27,2.82-.22-.25-.42-.52-.6-.8Z"/>
            <path class="cls-7" d="m43.71,156.4c-.72-.21-1.41-.57-2-1.02-2.31-1.75-1.77-5.56.87-6.69.82-.35,1.75-.42,2.61-.24,1.22.25,2.34,1,2.98,2.06,1.55,2.57-.65,6.46-3.75,6.04-.24-.03-.48-.09-.72-.15Z"/>
            <path class="cls-5" d="m44.37,150.02c.22-.54.28-1.15.18-1.73.1.69.69,1.55,1.12,2.08.67.82,1.83,1.92,3.01,1.75-.99.15-1.92.7-2.53,1.49-.55.71-1.3,1.76-1.18,2.7-.2-1.51-.8-2.88-2.34-3.4-.75-.25-1.56-.29-2.35-.32.73-.09,1.47-.21,2.11-.57.7-.4,1.45-.99,1.83-1.71.05-.09.09-.19.13-.29Z"/>
          </g>
          <g>
            <path class="cls-7" d="m162.64,15.41c1.1-.85,2.41-1.5,3.73-1.9,5.17-1.57,10.32,3.44,9.11,8.65-.37,1.61-1.29,3.09-2.51,4.2-1.71,1.56-4.07,2.43-6.38,2.23-5.58-.48-9.02-8.08-4.98-12.27.31-.33.66-.63,1.02-.91Z"/>
            <path class="cls-7" d="m163.47,24.36c-.55-.86-.93-1.86-1.14-2.84-.8-3.87,3.18-7.29,6.9-6.07,1.15.38,2.16,1.14,2.89,2.1,1.02,1.35,1.5,3.12,1.21,4.79-.72,4.03-6.48,6.04-9.27,2.82-.22-.25-.42-.52-.6-.8Z"/>
            <path class="cls-7" d="m167.09,24.94c-.72-.21-1.41-.57-2-1.02-2.31-1.75-1.77-5.56.87-6.69.82-.35,1.75-.42,2.61-.24,1.22.25,2.34,1,2.98,2.06,1.55,2.57-.65,6.46-3.75,6.04-.24-.03-.48-.09-.72-.15Z"/>
            <path class="cls-5" d="m167.75,18.56c.22-.54.28-1.15.18-1.73.1.69.69,1.55,1.12,2.08.67.82,1.83,1.92,3.01,1.75-.99.15-1.92.7-2.53,1.49-.55.71-1.3,1.76-1.18,2.7-.2-1.51-.8-2.88-2.34-3.4-.75-.25-1.56-.29-2.35-.32.73-.09,1.47-.21,2.11-.57.7-.4,1.45-.99,1.83-1.71.05-.09.09-.19.13-.29Z"/>
          </g>
          <rect class="cls-3" x="51.54" y="61.88" width="2.23" height=".51"/>
        </g>
      </g>
    </g>
  </g>
</svg>