<?xml version="1.0" encoding="UTF-8"?>
<svg id="_Слой_2" data-name="Слой 2" xmlns="http://www.w3.org/2000/svg" viewBox="0 0 2.98 90.17">
  <defs>
    <style>
      .cls-1 {
        fill: #ffe36b;
        stroke-width: 0px;
      }
    </style>
  </defs>
  <g id="_планеты" data-name="планеты">
    <g>
      <path class="cls-1" d="m.89,89.61c-.07-1-.15-2-.2-3-.02-.44.32-.81.76-.83s.81.32.83.76c0,.02,0,.05,0,.07-.04,1-.13,2-.19,3-.02.33-.31.58-.65.56-.3-.02-.54-.27-.56-.56Z"/>
      <path class="cls-1" d="m.35,79.61l-.04-1c-.02-.65.48-1.19,1.13-1.22s1.19.48,1.22,1.13c0,.03,0,.06,0,.09l-.04,1c-.02.63-.55,1.12-1.18,1.09-.6-.02-1.07-.51-1.09-1.09Z"/>
      <path class="cls-1" d="m.17,73.61l-.03-1c-.02-.75.57-1.37,1.31-1.39.75-.02,1.37.57,1.39,1.31,0,.02,0,.05,0,.07l-.03,1c-.02.73-.63,1.31-1.36,1.29-.71-.02-1.27-.59-1.29-1.29Z"/>
      <path class="cls-1" d="m.12,71.61l-.05-3c-.01-.78.61-1.43,1.4-1.44.78-.01,1.43.61,1.44,1.4v.04l-.05,3c-.01.76-.64,1.36-1.4,1.35-.74-.01-1.34-.61-1.35-1.35Z"/>
      <path class="cls-1" d="m0,61.61v-1c0-.82.66-1.49,1.48-1.5.82,0,1.49.66,1.5,1.48h0s0,1.01,0,1.01c0,.82-.67,1.48-1.49,1.48-.82,0-1.48-.67-1.48-1.48Z"/>
      <path class="cls-1" d="m.02,55.61l.02-1c.02-.8.68-1.42,1.48-1.4.77.02,1.38.64,1.4,1.4l.02,1c.02.81-.62,1.48-1.43,1.5-.81.02-1.48-.62-1.5-1.43,0-.02,0-.05,0-.07Z"/>
      <path class="cls-1" d="m.08,53.61c.03-1,.08-2,.13-3,.04-.7.64-1.24,1.34-1.21.66.04,1.17.57,1.21,1.21.05,1,.1,2,.13,3,.02.78-.59,1.42-1.37,1.45-.78.02-1.42-.59-1.44-1.37,0-.02,0-.05,0-.08Z"/>
      <path class="cls-1" d="m.64,43.61l.06-1c.03-.44.4-.77.84-.74.4.02.72.35.74.74l.06,1c.03.47-.33.87-.8.9-.47.03-.87-.33-.9-.8,0-.03,0-.07,0-.1Z"/>
      <path class="cls-1" d="m.91,37.61l.03-1c0-.31.26-.55.57-.54.3,0,.53.25.54.54l.02,1c0,.32-.25.59-.57.6-.32,0-.59-.25-.6-.57,0,0,0-.02,0-.03Z"/>
      <path class="cls-1" d="m.96,35.61l.03-3c0-.28.23-.5.51-.5.28,0,.5.23.5.5l.03,3c0,.29-.23.54-.53.54-.29,0-.54-.23-.54-.53h0Z"/>
      <path class="cls-1" d="m1.05,25.61v-1c.01-.24.21-.43.45-.43.24,0,.43.19.43.43v1c.01.24-.18.44-.43.45-.24,0-.44-.19-.45-.44h0Z"/>
      <path class="cls-1" d="m1.09,19.61v-1c0-.22.17-.4.4-.4.22,0,.4.18.4.4h0s0,1,0,1c0,.22-.18.4-.4.4-.22,0-.4-.18-.4-.4Z"/>
      <path class="cls-1" d="m1.08,17.61v-3c-.01-.23.17-.42.4-.42s.42.18.42.41h0s-.01,3-.01,3c0,.22-.18.4-.41.4-.22,0-.4-.18-.4-.4Z"/>
      <path class="cls-1" d="m1.03,7.61l-.02-1c0-.26.21-.48.47-.48.26,0,.48.21.48.47h0s-.02,1.01-.02,1.01c0,.25-.21.46-.47.45-.25,0-.45-.21-.45-.45Z"/>
      <path class="cls-1" d="m.93,1.61l-.03-1C.89.28,1.15,0,1.47,0c.33,0,.6.25.61.58v.03l-.03,1c0,.31-.27.56-.58.55-.3,0-.54-.25-.55-.55Z"/>
    </g>
  </g>
</svg>