<?xml version="1.0" encoding="UTF-8"?>
<svg id="_Слой_2" data-name="Слой 2" xmlns="http://www.w3.org/2000/svg" viewBox="0 0 127.27 126.8">
  <defs>
    <style>
      .cls-1 {
        fill: #ffe36b;
        stroke-width: 0px;
      }
    </style>
  </defs>
  <g id="_планеты" data-name="планеты">
    <g>
      <polygon class="cls-1" points="127.17 59.35 127.27 62.31 127.27 62.32 127.26 62.31 127.26 62.31 127.17 59.35"/>
      <path class="cls-1" d="m127.26,67.26l-.04.99c0,.09-.08.17-.18.16-.09,0-.17-.08-.16-.18,0,0,0-.01,0-.01l.11-.98c0-.07.07-.13.15-.12.07,0,.12.07.12.14Z"/>
      <path class="cls-1" d="m125.48,82.12l-.23.98c-.15.66-.82,1.07-1.48.92-.66-.15-1.07-.82-.92-1.48.02-.07.04-.13.06-.19v-.02s.39-.9.39-.9v-.02c.25-.58.93-.86,1.51-.61.52.22.8.78.67,1.32Z"/>
      <path class="cls-1" d="m125.01,84.08l-.84,2.92c-.24.83-1.1,1.31-1.93,1.07-.83-.24-1.3-1.1-1.07-1.93.02-.08.05-.16.09-.23l.03-.07,1.25-2.62.03-.06c.31-.65,1.09-.93,1.75-.62.59.28.87.94.7,1.55Z"/>
      <path class="cls-1" d="m122.38,91.77l-.41.93c-.43.99-1.58,1.44-2.57,1-.99-.43-1.44-1.58-1-2.57.03-.07.06-.14.1-.2l.02-.03.49-.83.02-.03c.53-.9,1.69-1.2,2.58-.67.83.49,1.15,1.52.77,2.38Z"/>
      <path class="cls-1" d="m113.96,104.42l-.69.74c-.65.7-1.74.73-2.44.08-.65-.61-.73-1.61-.19-2.31l.02-.03.59-.76v-.02c.61-.78,1.72-.92,2.5-.32.78.6.92,1.71.32,2.49-.03.04-.07.09-.11.13Z"/>
      <path class="cls-1" d="m112.56,105.89l-2.17,2.13c-.61.6-1.59.59-2.19-.02-.56-.57-.59-1.48-.08-2.08l.05-.06,1.88-2.2.05-.06c.6-.71,1.66-.79,2.37-.19.71.6.79,1.66.19,2.37-.03.04-.07.07-.1.11Z"/>
      <path class="cls-1" d="m106.62,111.39l-.77.65c-.59.5-1.47.42-1.97-.17-.49-.58-.43-1.45.15-1.95l.02-.02.73-.63h.02c.58-.52,1.47-.46,1.98.12.51.58.45,1.47-.13,1.98,0,0-.01.01-.02.01Z"/>
      <path class="cls-1" d="m94.15,119.92l-.89.47c-.69.36-1.55.09-1.91-.6s-.09-1.55.6-1.91c0,0,0,0,.01,0h.03s.86-.45.86-.45h.02c.7-.36,1.54-.08,1.89.62.35.69.07,1.53-.61,1.88Z"/>
      <path class="cls-1" d="m92.35,120.84l-2.76,1.25c-.71.32-1.55,0-1.88-.7-.32-.71,0-1.55.7-1.88l.06-.03,2.63-1.2.06-.03c.71-.32,1.55,0,1.88.7.32.71,0,1.55-.7,1.88h0Z"/>
      <path class="cls-1" d="m84.86,123.84l-.96.3c-.72.23-1.49-.18-1.71-.9-.22-.71.16-1.46.86-1.7h.02s.91-.32.91-.32h.02c.72-.25,1.51.13,1.75.85.25.72-.14,1.51-.86,1.75,0,0-.03,0-.03.01Z"/>
      <path class="cls-1" d="m70.05,126.65l-1,.06c-.6.04-1.11-.42-1.14-1.01-.04-.58.39-1.08.97-1.14h.02s.96-.1.96-.1h.02c.6-.06,1.15.38,1.21.98.06.6-.38,1.15-.98,1.21-.01,0-.03,0-.04,0Z"/>
      <path class="cls-1" d="m68.04,126.75l-3.01.05c-.56,0-1.01-.43-1.02-.99,0-.54.41-.99.95-1.02h.05s2.91-.16,2.91-.16h.05c.59-.03,1.09.42,1.12,1,.03.59-.42,1.09-1,1.12-.01,0-.03,0-.04,0Z"/>
      <path class="cls-1" d="m60.02,126.57l-1-.09c-.5-.05-.86-.48-.81-.98.04-.48.46-.84.95-.82h.02s.97.06.97.06h.01c.51.03.89.46.86.97-.03.51-.46.89-.97.86,0,0-.02,0-.03,0Z"/>
      <path class="cls-1" d="m45.36,123.56l-.95-.32c-.34-.12-.52-.48-.4-.82.11-.33.47-.51.8-.41h.01s.94.29.94.29h0c.35.11.55.48.44.83-.11.35-.48.55-.83.44,0,0-.02,0-.02,0Z"/>
      <path class="cls-1" d="m43.47,122.9l-2.78-1.11c-.29-.12-.44-.45-.32-.74.11-.29.43-.43.72-.33h.03s2.77.99,2.77.99h.03c.33.13.5.49.38.81s-.48.5-.8.38c0,0-.02,0-.02,0Z"/>
      <path class="cls-1" d="m36.19,119.66l-.88-.47c-.22-.12-.31-.39-.19-.62.12-.22.38-.3.6-.2h0s.88.43.88.43h0c.24.12.33.4.22.64-.11.24-.4.33-.63.22,0,0-.01,0-.02,0Z"/>
      <path class="cls-1" d="m23.79,111.44l-.76-.64c-.17-.14-.19-.39-.05-.55.14-.17.39-.19.55-.05h0s0,0,0,0l.74.64h0c.16.14.18.39.04.55-.14.16-.38.18-.54.04Z"/>
      <path class="cls-1" d="m22.28,110.15c-.73-.67-1.45-1.36-2.2-2.02-.17-.15-.19-.42-.04-.6.15-.17.42-.19.6-.04,0,0,.01,0,.02.01h.02c.7.7,1.42,1.37,2.13,2.04h.01c.16.16.16.41.01.57-.15.16-.4.16-.55.02Z"/>
      <path class="cls-1" d="m16.59,104.6l-.67-.73c-.21-.23-.2-.59.03-.81.23-.21.59-.2.81.03,0,0,.02.02.02.03h0s.61.77.61.77h0c.19.24.15.58-.08.76-.22.18-.54.15-.73-.06Z"/>
      <path class="cls-1" d="m7.55,92.62l-.5-.87c-.36-.62-.15-1.4.47-1.76.62-.36,1.4-.15,1.76.47.02.04.04.08.06.12v.02s.4.88.4.88v.02c.29.62.01,1.35-.61,1.63-.58.26-1.26.03-1.58-.51Z"/>
      <path class="cls-1" d="m6.55,90.87c-.47-.89-.91-1.8-1.37-2.7-.36-.72-.07-1.6.65-1.97s1.6-.07,1.97.65c.02.03.03.07.05.1l.03.06c.36.89.74,1.78,1.08,2.69l.02.06c.27.69-.08,1.46-.77,1.73-.64.25-1.35-.03-1.66-.63Z"/>
      <path class="cls-1" d="m3.25,83.49l-.34-.96c-.3-.85.14-1.79,1-2.09.85-.3,1.79.14,2.09,1,0,.02.02.05.02.07v.03s.28.92.28.92v.03c.26.85-.22,1.75-1.08,2.01-.83.25-1.7-.2-1.98-1.01Z"/>
      <path class="cls-1" d="m.45,68.62l-.06-1c-.05-.71.49-1.33,1.21-1.37.7-.04,1.3.47,1.37,1.16v.02s.1.96.1.96v.02c.07.72-.45,1.36-1.17,1.43-.72.07-1.36-.45-1.43-1.17,0-.01,0-.03,0-.05Z"/>
      <path class="cls-1" d="m.33,66.61c0-1.01-.11-2.01-.26-3.02-.12-.79.42-1.54,1.21-1.66.79-.12,1.54.42,1.66,1.21.02.12.02.23.01.35v.07c-.09.97-.13,1.94-.06,2.9v.05c.05.71-.48,1.32-1.18,1.37s-1.32-.48-1.37-1.19c0-.03,0-.06,0-.09Z"/>
      <path class="cls-1" d="m0,58.53l.06-1.01c.06-.91.85-1.61,1.76-1.55.91.06,1.61.85,1.55,1.76,0,0,0,.02,0,.03v.03s-.09.96-.09.96v.03c-.08.91-.88,1.58-1.78,1.5-.89-.08-1.56-.85-1.5-1.74Z"/>
      <path class="cls-1" d="m2.67,43.58l.31-.97c.3-.93,1.3-1.44,2.23-1.14s1.44,1.3,1.14,2.23v.02s-.3.91-.3.91v.03c-.31.93-1.31,1.45-2.24,1.15-.93-.3-1.45-1.3-1.15-2.23h0Z"/>
      <path class="cls-1" d="m3.32,41.65c.36-.95.71-1.9,1.09-2.84.36-.9,1.38-1.33,2.28-.96.87.35,1.3,1.31,1,2.19l-.03.08c-.31.91-.66,1.8-.99,2.7l-.03.08c-.34.92-1.36,1.38-2.28,1.04-.92-.34-1.38-1.36-1.04-2.28h0Z"/>
      <path class="cls-1" d="m6.57,34.22l.47-.9c.42-.8,1.42-1.11,2.22-.68.78.41,1.09,1.37.71,2.16v.03s-.43.87-.43.87v.02c-.41.83-1.4,1.17-2.23.77s-1.17-1.39-.77-2.22c0-.02.02-.04.03-.05Z"/>
      <path class="cls-1" d="m15.58,22.12l.61-.79c.26-.34.75-.4,1.09-.14.34.26.4.75.14,1.09-.01.02-.03.04-.04.05h0s-.66.72-.66.72h0c-.28.31-.74.32-1.04.05-.28-.26-.31-.69-.08-.99Z"/>
      <path class="cls-1" d="m16.81,20.54l1.93-2.31c.35-.42.98-.48,1.4-.13.42.35.48.98.13,1.4-.02.03-.05.06-.07.08l-.03.03-2.11,2.02-.03.03c-.33.32-.85.3-1.17-.03-.29-.31-.3-.78-.04-1.1Z"/>
      <path class="cls-1" d="m22.26,14.65l.75-.67c.49-.44,1.25-.39,1.68.1s.39,1.25-.1,1.68c0,0-.01.01-.02.02l-.02.02-.74.62h-.01c-.5.43-1.24.36-1.66-.14-.41-.49-.35-1.22.12-1.64Z"/>
      <path class="cls-1" d="m34.62,6.01l.9-.46c.65-.33,1.45-.08,1.78.57.33.65.08,1.45-.57,1.78h-.02s-.86.45-.86.45h-.02c-.65.34-1.45.09-1.78-.56s-.08-1.45.57-1.78Z"/>
      <path class="cls-1" d="m36.42,5.12l2.77-1.22c.64-.28,1.4,0,1.68.65.28.63,0,1.37-.62,1.66l-.06.03-2.62,1.24-.06.03c-.66.31-1.44.03-1.75-.63-.31-.66-.03-1.44.63-1.75,0,0,.02-.01.03-.01Z"/>
      <path class="cls-1" d="m43.93,2.22c.32-.1.65-.18.97-.27.59-.15,1.2.2,1.35.79.14.54-.15,1.1-.66,1.3h-.02c-.3.13-.6.25-.91.35h-.02c-.6.22-1.26-.1-1.47-.7-.21-.6.1-1.26.7-1.47.01,0,.03-.01.05-.02Z"/>
      <path class="cls-1" d="m58.76.17h.99s.05,0,.05.04c0,.03-.02.05-.05.05l-.98.15c-.07.01-.13-.03-.14-.1-.01-.07.03-.13.1-.14,0,0,.01,0,.02,0Z"/>
      <path class="cls-1" d="m60.74.12c.99-.01,1.98-.05,2.96-.1,0,0,.01,0,.01.01,0,0,0,.01-.01.01h0c-.99.02-1.98.05-2.96.11,0,0-.02,0-.02-.02s0-.02.02-.02h0Z"/>
      <path class="cls-1" d="m68.65,0l.99.03c.12,0,.21.1.21.22,0,.12-.1.21-.22.21,0,0-.02,0-.02,0l-.98-.11c-.1,0-.17-.09-.16-.19,0-.09.09-.16.18-.16Z"/>
      <path class="cls-1" d="m83.3,2.46l.95.3c.24.07.37.33.29.56-.07.24-.33.37-.56.29h0s0,0,0,0l-.93-.3h0c-.23-.08-.36-.33-.28-.56.08-.23.32-.36.56-.29Z"/>
      <path class="cls-1" d="m85.19,3.08l2.8,1.04c.24.09.36.36.27.6-.09.24-.36.36-.6.27h0s-.02,0-.02,0l-2.75-1.04h-.02c-.23-.1-.35-.36-.26-.59.09-.23.35-.35.58-.26Z"/>
      <path class="cls-1" d="m92.54,6.14l.89.45c.24.12.34.41.22.65-.12.24-.41.34-.65.22h0s0,0,0,0l-.87-.45h0c-.24-.12-.33-.42-.21-.65.12-.24.41-.33.65-.21Z"/>
      <path class="cls-1" d="m105,14.29l.76.64c.2.17.23.47.05.67-.17.2-.47.23-.67.05h0s-.75-.64-.75-.64h0c-.2-.18-.23-.48-.06-.68s.47-.23.67-.06h0Z"/>
      <path class="cls-1" d="m106.5,15.59l2.18,2.03c.19.18.2.48.02.68-.18.19-.48.2-.68.02h0s-.02-.02-.02-.02l-2.15-2.01-.02-.02c-.19-.18-.2-.48-.02-.67.18-.19.48-.2.67-.02Z"/>
      <path class="cls-1" d="m112.12,21.21l.65.75c.18.21.16.53-.05.72s-.53.16-.72-.05h0s0,0,0,0l-.64-.75h0c-.18-.22-.16-.54.06-.72.21-.18.53-.16.71.05Z"/>
      <path class="cls-1" d="m120.61,33.47l.46.88c.14.28.04.62-.24.77-.28.15-.62.04-.77-.24h0s0-.01,0-.01l-.45-.87h0c-.14-.29-.03-.63.25-.77.28-.14.62-.03.76.24Z"/>
      <path class="cls-1" d="m121.51,35.25l1.23,2.72c.13.28,0,.62-.28.75-.28.13-.61,0-.74-.28v-.02s-1.24-2.67-1.24-2.67v-.02c-.14-.29-.02-.63.27-.76.29-.13.63,0,.76.28h0Z"/>
      <path class="cls-1" d="m124.49,42.63l.3.95c.09.28-.06.58-.34.67-.28.09-.57-.06-.66-.34h0s-.31-.94-.31-.94h0c-.09-.29.06-.59.34-.69.28-.09.58.06.68.34,0,0,0,0,0,0Z"/>
      <path class="cls-1" d="m127.03,57.27l.07.98s0,0,0,0c0,0,0,0-.01,0l-.09-.98s0-.02.02-.02c.01,0,.02,0,.02.02h0Z"/>
    </g>
  </g>
</svg>