<?xml version="1.0" encoding="UTF-8"?>
<svg id="_Слой_2" data-name="Слой 2" xmlns="http://www.w3.org/2000/svg" viewBox="0 0 128.83 126.17">
  <defs>
    <style>
      .cls-1 {
        fill: #ffe36b;
        stroke-width: 0px;
      }
    </style>
  </defs>
  <g id="_планеты" data-name="планеты">
    <g>
      <polygon class="cls-1" points="115.17 26.2 116.86 28.64 116.86 28.64 116.85 28.64 116.85 28.64 115.17 26.2"/>
      <path class="cls-1" d="m119.52,32.81l.5.85c.05.08.02.19-.06.23-.08.05-.18.02-.23-.06,0,0,0,0,0-.01l-.44-.88c-.03-.07,0-.15.06-.18.06-.03.14,0,.18.05Z"/>
      <path class="cls-1" d="m126.05,46.28l.34.95c.23.64-.11,1.35-.75,1.57-.64.23-1.35-.11-1.57-.75-.02-.06-.04-.13-.05-.2v-.02s-.17-.96-.17-.96v-.02c-.11-.62.31-1.22.93-1.32.56-.1,1.09.23,1.27.75Z"/>
      <path class="cls-1" d="m126.71,48.19l.87,2.91c.25.83-.22,1.69-1.05,1.94-.83.25-1.69-.22-1.94-1.05-.02-.08-.04-.16-.05-.24v-.08s-.38-2.88-.38-2.88v-.07c-.1-.72.41-1.38,1.13-1.47.65-.08,1.24.32,1.42.93Z"/>
      <path class="cls-1" d="m128.65,56.07l.16,1.01c.17,1.06-.55,2.06-1.62,2.23-1.06.17-2.06-.55-2.23-1.62-.01-.07-.02-.15-.02-.22v-.03s-.04-.96-.04-.96v-.04c-.04-1.04.77-1.92,1.81-1.96.97-.04,1.79.66,1.94,1.59Z"/>
      <path class="cls-1" d="m128.39,71.27l-.18,1c-.17.94-1.07,1.56-2.01,1.39-.88-.16-1.48-.96-1.41-1.84v-.04s.09-.96.09-.96v-.02c.09-.98.95-1.7,1.92-1.61.98.08,1.7.94,1.61,1.92,0,.06-.01.11-.02.17Z"/>
      <path class="cls-1" d="m128,73.27l-.68,2.96c-.19.83-1.02,1.35-1.85,1.16-.79-.18-1.29-.93-1.19-1.71v-.08s.4-2.86.4-2.86v-.07c.14-.92.98-1.56,1.9-1.44.92.13,1.56.97,1.44,1.89,0,.05-.02.1-.03.15Z"/>
      <path class="cls-1" d="m125.97,81.1l-.3.96c-.23.74-1.01,1.15-1.75.92-.73-.22-1.14-.99-.93-1.72v-.02s.28-.93.28-.93v-.02c.22-.74,1-1.17,1.75-.96.75.22,1.17,1,.96,1.74,0,0,0,.02,0,.02Z"/>
      <path class="cls-1" d="m120.08,95.01l-.5.88c-.39.68-1.25.92-1.93.53s-.92-1.25-.53-1.93c0,0,0,0,0-.01l.02-.03.49-.83v-.02c.41-.67,1.27-.89,1.94-.5.66.39.89,1.25.51,1.91Z"/>
      <path class="cls-1" d="m119.06,96.75l-1.65,2.54c-.43.66-1.3.85-1.96.42s-.85-1.3-.42-1.96l.04-.06,1.57-2.43.04-.06c.43-.66,1.3-.85,1.96-.42.66.43.85,1.3.42,1.96h0Z"/>
      <path class="cls-1" d="m114.38,103.33l-.65.77c-.48.58-1.35.65-1.93.17-.57-.48-.65-1.32-.19-1.9l.02-.02.6-.76v-.02c.49-.6,1.36-.7,1.95-.22.6.47.7,1.34.22,1.94,0,0-.02.02-.02.03Z"/>
      <path class="cls-1" d="m103.43,113.69l-.81.59c-.48.35-1.16.25-1.51-.23-.34-.47-.25-1.12.2-1.48h.02s.76-.61.76-.61h.01c.48-.39,1.17-.31,1.55.17.38.48.3,1.17-.18,1.55-.01,0-.02.02-.04.03Z"/>
      <path class="cls-1" d="m101.8,114.86l-2.51,1.67c-.46.31-1.09.18-1.39-.28-.3-.45-.19-1.06.25-1.37l.04-.03,2.37-1.7.04-.03c.48-.34,1.14-.23,1.48.24s.23,1.14-.24,1.48c0,0-.02.02-.03.02Z"/>
      <path class="cls-1" d="m94.95,119.04l-.89.46c-.44.23-.98.06-1.21-.39-.22-.43-.06-.96.36-1.2h.01s.85-.49.85-.49h.01c.44-.26,1-.1,1.25.34.25.44.09,1-.35,1.25,0,0-.02.01-.03.02Z"/>
      <path class="cls-1" d="m80.98,124.42l-.97.24c-.35.09-.7-.13-.78-.47-.08-.34.12-.68.45-.78h.01s.94-.27.94-.27h0c.35-.1.72.1.82.46.1.35-.11.72-.46.82,0,0-.02,0-.02,0Z"/>
      <path class="cls-1" d="m79.03,124.88l-2.94.57c-.31.06-.61-.14-.67-.45-.06-.3.13-.59.43-.67h.03s2.86-.68,2.86-.68h.03c.34-.09.68.12.76.46.08.34-.13.68-.47.76,0,0-.02,0-.02,0Z"/>
      <path class="cls-1" d="m71.16,126.09l-.99.08c-.25.02-.47-.17-.49-.42-.02-.25.16-.46.4-.49h0s.97-.12.97-.12h0c.26-.03.5.15.53.41.03.26-.16.5-.42.53,0,0-.01,0-.02,0Z"/>
      <path class="cls-1" d="m56.28,125.86l-.98-.13c-.21-.03-.37-.22-.34-.44.03-.21.22-.37.44-.34h0s0,0,0,0l.97.14h0c.21.03.36.23.33.44-.03.21-.22.36-.43.33Z"/>
      <path class="cls-1" d="m54.31,125.59c-.98-.17-1.95-.36-2.94-.51-.23-.04-.39-.25-.35-.48.04-.23.25-.39.48-.35,0,0,.01,0,.02,0h.02c.96.21,1.93.38,2.89.56h.02c.21.04.35.25.31.47-.04.21-.24.35-.46.31Z"/>
      <path class="cls-1" d="m46.52,123.99l-.96-.25c-.31-.08-.49-.39-.41-.7s.39-.49.7-.41c.01,0,.02,0,.04.01h0s.93.32.93.32h0c.28.1.43.4.34.68-.09.27-.38.42-.65.35Z"/>
      <path class="cls-1" d="m32.45,118.79l-.9-.46c-.63-.33-.88-1.1-.56-1.74.33-.63,1.1-.88,1.74-.56.04.02.08.04.11.07h.02s.81.54.81.54h.02c.57.39.73,1.15.36,1.72-.35.53-1.05.71-1.6.42Z"/>
      <path class="cls-1" d="m30.66,117.85c-.88-.5-1.74-1.02-2.61-1.54-.7-.41-.93-1.31-.51-2.01.41-.7,1.31-.93,2.01-.51.03.02.06.04.1.06l.06.04c.79.56,1.58,1.1,2.36,1.68l.05.04c.6.44.72,1.27.29,1.87-.41.55-1.16.7-1.74.37Z"/>
      <path class="cls-1" d="m23.9,113.42l-.8-.62c-.71-.56-.84-1.58-.29-2.3.56-.72,1.58-.85,2.3-.29.02.02.04.03.06.05l.02.02.73.63.02.02c.68.58.75,1.6.17,2.28-.56.65-1.54.74-2.21.22Z"/>
      <path class="cls-1" d="m13.52,102.42l-.6-.81c-.42-.57-.3-1.38.28-1.81.56-.41,1.35-.3,1.78.24v.02s.61.76.61.76v.02c.46.57.36,1.39-.2,1.84-.57.45-1.39.35-1.84-.22,0-.01-.02-.03-.03-.04Z"/>
      <path class="cls-1" d="m12.33,100.79c-.55-.85-1.18-1.63-1.85-2.4-.53-.6-.47-1.52.13-2.05.6-.53,1.52-.48,2.05.13.08.09.14.18.2.28l.03.06c.45.86.94,1.7,1.52,2.48l.03.04c.42.57.31,1.37-.26,1.79s-1.37.31-1.79-.26c-.02-.02-.04-.05-.05-.07Z"/>
      <path class="cls-1" d="m7.69,94.16l-.49-.89c-.44-.8-.15-1.81.65-2.25.8-.44,1.81-.16,2.25.64,0,0,0,.02.01.03l.02.03.45.85v.02c.44.8.13,1.8-.68,2.22-.79.42-1.77.12-2.2-.66Z"/>
      <path class="cls-1" d="m1.87,80.14l-.26-.98c-.25-.95.32-1.92,1.26-2.16.95-.25,1.92.32,2.16,1.26v.02s.25.93.25.93v.03c.26.95-.3,1.92-1.25,2.17-.95.25-1.92-.31-2.17-1.26h0Z"/>
      <path class="cls-1" d="m1.37,78.17c-.21-.99-.43-1.99-.62-2.98-.18-.95.45-1.86,1.39-2.04.92-.17,1.8.41,2.02,1.3l.02.09c.23.93.42,1.87.62,2.81l.02.08c.21.96-.4,1.9-1.35,2.1s-1.9-.4-2.11-1.35h0Z"/>
      <path class="cls-1" d="m.09,70.16l-.08-1.01c-.08-.9.6-1.7,1.5-1.77.88-.07,1.66.57,1.77,1.44v.03s.12.96.12.96v.02c.11.91-.54,1.74-1.45,1.85-.91.11-1.74-.54-1.85-1.45,0-.02,0-.04,0-.06Z"/>
      <path class="cls-1" d="m1.14,55.11l.09-1c.04-.43.42-.74.84-.7s.74.42.7.84c0,.02,0,.04,0,.07h0s-.17.97-.17.97h0c-.07.41-.45.68-.85.6-.38-.07-.63-.41-.6-.79Z"/>
      <path class="cls-1" d="m1.33,53.12l.38-2.98c.07-.55.57-.93,1.11-.86.55.07.93.57.86,1.11,0,.04-.01.07-.02.11v.04s-.7,2.84-.7,2.84v.04c-.12.44-.56.72-1.01.61-.41-.1-.68-.5-.63-.91Z"/>
      <path class="cls-1" d="m2.74,45.21l.27-.97c.18-.63.84-1,1.47-.82.63.18,1,.84.82,1.47,0,0,0,.02,0,.03v.02s-.3.92-.3.92v.02c-.2.62-.86.97-1.48.77-.61-.19-.95-.83-.78-1.45Z"/>
      <path class="cls-1" d="m8.47,31.27l.51-.87c.37-.63,1.18-.85,1.81-.48s.85,1.18.48,1.81v.02s-.5.84-.5.84v.02c-.38.63-1.19.85-1.82.48-.63-.37-.85-1.18-.48-1.81Z"/>
      <path class="cls-1" d="m9.51,29.54l1.67-2.52c.39-.59,1.18-.75,1.77-.36.58.38.74,1.15.38,1.74l-.03.05-1.54,2.46-.03.05c-.39.62-1.2.8-1.81.42-.62-.39-.8-1.2-.42-1.81,0,0,.01-.02.02-.03Z"/>
      <path class="cls-1" d="m14.27,23.05c.22-.25.44-.5.67-.75.42-.45,1.12-.48,1.56-.06.41.38.47,1.01.15,1.45v.02c-.2.26-.39.53-.59.78h-.01c-.39.52-1.12.61-1.62.22-.5-.39-.59-1.12-.2-1.62,0-.01.02-.03.03-.04Z"/>
      <path class="cls-1" d="m25.64,13.32l.83-.55s.06,0,.07.02c.02.02.01.05,0,.07l-.74.65s-.13.04-.17,0c-.04-.05-.04-.13,0-.17,0,0,.01,0,.01-.01Z"/>
      <path class="cls-1" d="m27.28,12.21c.82-.55,1.63-1.11,2.44-1.68,0,0,.01,0,.02,0,0,0,0,.01,0,.02h0c-.82.55-1.64,1.11-2.43,1.69,0,0-.02,0-.02,0,0,0,0-.02,0-.02,0,0,0,0,0,0Z"/>
      <path class="cls-1" d="m33.87,7.84l.85-.51c.1-.06.23-.03.3.07.06.1.03.23-.07.3,0,0-.01,0-.02.01l-.89.43c-.09.04-.19,0-.23-.08-.04-.08,0-.18.07-.23Z"/>
      <path class="cls-1" d="m47.54,2l.96-.26c.24-.06.48.08.55.32.06.24-.08.48-.32.55h0s0,0,0,0l-.95.25h0c-.24.06-.48-.08-.54-.32-.06-.24.08-.48.31-.54Z"/>
      <path class="cls-1" d="m49.46,1.5l2.92-.64c.25-.05.5.1.55.35.06.25-.1.5-.35.55h0s-.02,0-.02,0l-2.88.61h-.02c-.24.06-.48-.1-.53-.34-.05-.24.1-.48.35-.53Z"/>
      <path class="cls-1" d="m57.3.11l.99-.1c.27-.03.51.17.53.43.03.27-.17.51-.43.53h0s0,0,0,0l-.98.1h0c-.27.03-.5-.17-.53-.43-.03-.26.17-.5.43-.53Z"/>
      <path class="cls-1" d="m72.18.24l.99.13c.26.04.44.27.41.54-.04.26-.28.44-.54.41h0s-.97-.13-.97-.13h0c-.26-.04-.44-.28-.41-.54.04-.26.28-.44.54-.41h0Z"/>
      <path class="cls-1" d="m74.15.52l2.94.53c.26.05.43.3.39.56-.05.26-.3.43-.56.39h0s-.02,0-.02,0l-2.89-.53h-.02c-.26-.05-.43-.3-.38-.56s.29-.43.55-.38Z"/>
      <path class="cls-1" d="m81.92,2.22l.96.28c.27.08.42.36.35.63s-.36.42-.63.35h0s0,0,0,0l-.94-.28h0c-.27-.08-.42-.36-.34-.63.08-.26.36-.42.62-.34Z"/>
      <path class="cls-1" d="m95.68,7.96l.86.5c.27.16.37.51.21.78-.16.27-.51.37-.78.21h0s0,0,0,0l-.84-.49h0c-.27-.16-.36-.51-.2-.78.16-.27.5-.36.77-.21Z"/>
      <path class="cls-1" d="m97.4,8.97l2.51,1.63c.26.17.34.52.17.78-.17.26-.52.33-.78.17h-.02s-2.47-1.6-2.47-1.6h-.02c-.27-.19-.34-.54-.17-.81.17-.27.52-.34.79-.17h0Z"/>
      <path class="cls-1" d="m103.89,13.58l.77.63c.23.19.26.52.07.75-.18.22-.52.26-.74.08h0s-.76-.62-.76-.62h0c-.23-.19-.27-.53-.08-.76.19-.23.52-.27.75-.08,0,0,0,0,0,0Z"/>
      <path class="cls-1" d="m113.94,24.52l.59.79s0,0,0,.01c0,0,0,0-.01,0l-.6-.78s0-.02,0-.03c0,0,.02,0,.03,0h0Z"/>
    </g>
  </g>
</svg>