<?xml version="1.0" encoding="UTF-8"?>
<svg id="_Слой_2" data-name="Слой 2" xmlns="http://www.w3.org/2000/svg" viewBox="0 0 128.28 45.28">
  <defs>
    <style>
      .cls-1 {
        fill: #ffe36b;
        stroke-width: 0px;
      }
    </style>
  </defs>
  <g id="_планеты" data-name="планеты">
    <g>
      <path class="cls-1" d="m127.78,1.55l-2.78,1.15c-.5.21-1.08-.03-1.29-.54-.21-.5.03-1.08.54-1.29.04-.01.08-.03.11-.04l2.9-.8c.43-.12.87.13.99.56.11.4-.1.81-.47.96Z"/>
      <path class="cls-1" d="m120.35,4.56l-.93.37c-.65.26-1.39-.07-1.65-.72s.07-1.39.72-1.65c.03-.01.07-.02.1-.03l.96-.29c.65-.19,1.34.18,1.53.83.18.62-.14,1.27-.73,1.5Z"/>
      <path class="cls-1" d="m106.33,9.91l-.94.35c-.9.34-1.91-.12-2.24-1.03-.34-.9.13-1.91,1.03-2.24.02,0,.05-.02.08-.03l.95-.3c.91-.29,1.87.21,2.16,1.12.28.88-.19,1.82-1.04,2.14Z"/>
      <path class="cls-1" d="m104.46,10.6l-2.82,1.03c-.95.35-2-.14-2.35-1.09-.35-.95.14-2,1.09-2.35.02,0,.05-.02.07-.02l2.86-.92c.93-.3,1.93.21,2.23,1.14.29.91-.19,1.88-1.07,2.2Z"/>
      <path class="cls-1" d="m96.94,13.34l-.94.34c-.99.36-2.09-.16-2.45-1.15-.36-.99.16-2.09,1.15-2.45.01,0,.04-.01.05-.02l.95-.31c1-.33,2.07.21,2.4,1.21.32.98-.2,2.03-1.16,2.38Z"/>
      <path class="cls-1" d="m82.79,18.31l-.95.32c-1.04.36-2.18-.2-2.53-1.24-.36-1.04.2-2.17,1.23-2.53l.94-.33c1.04-.36,2.18.19,2.54,1.23s-.19,2.18-1.23,2.54h0Z"/>
      <path class="cls-1" d="m80.89,18.96l-2.84.97c-1.04.35-2.17-.2-2.52-1.24-.35-1.03.2-2.16,1.23-2.52l2.83-.98c1.04-.36,2.18.19,2.54,1.23.36,1.04-.19,2.18-1.23,2.54h0Z"/>
      <path class="cls-1" d="m73.32,21.55l-.95.32c-1.03.35-2.15-.2-2.5-1.23-.35-1.03.19-2.14,1.22-2.5l.94-.33c1.03-.36,2.15.19,2.51,1.22.36,1.03-.19,2.15-1.22,2.51h0Z"/>
      <path class="cls-1" d="m59.12,26.37l-.95.32c-.99.33-2.07-.2-2.4-1.2-.33-.98.19-2.05,1.17-2.4l.94-.33c.99-.35,2.08.17,2.43,1.16.35.99-.17,2.08-1.16,2.43,0,0-.02,0-.03,0Z"/>
      <path class="cls-1" d="m57.22,27.01l-2.84.96c-.98.33-2.04-.2-2.37-1.18-.33-.97.19-2.02,1.15-2.36l2.83-1c.99-.35,2.07.17,2.41,1.15.35.98-.17,2.06-1.15,2.41,0,0-.02,0-.03,0Z"/>
      <path class="cls-1" d="m49.64,29.56l-.95.32c-.95.32-1.99-.19-2.31-1.15-.32-.94.18-1.97,1.12-2.3l.94-.33c.95-.34,2,.16,2.33,1.12.34.95-.16,2-1.12,2.34,0,0-.02,0-.03,0Z"/>
      <path class="cls-1" d="m35.4,34.27l-.95.31c-.86.28-1.79-.18-2.07-1.04-.28-.85.17-1.76,1-2.06l.94-.34c.86-.31,1.8.14,2.11,1,.31.86-.14,1.8-1,2.11-.01,0-.03,0-.04.01Z"/>
      <path class="cls-1" d="m33.5,34.9l-2.85.93c-.83.27-1.72-.18-1.99-1.01-.26-.81.17-1.68.96-1.97l2.82-1.03c.84-.31,1.78.13,2.08.97.31.84-.13,1.78-.97,2.08-.02,0-.04.01-.05.02Z"/>
      <path class="cls-1" d="m25.89,37.37l-.95.31c-.77.25-1.6-.17-1.85-.94-.25-.75.16-1.56.89-1.84l.94-.34c.77-.28,1.63.12,1.91.89s-.12,1.63-.89,1.91c-.01,0-.03.01-.05.02Z"/>
      <path class="cls-1" d="m11.6,41.95l-.95.3c-.6.19-1.23-.14-1.42-.74-.18-.58.12-1.19.68-1.4l.94-.35c.6-.22,1.26.08,1.49.68.22.6-.08,1.26-.68,1.49-.02,0-.04.01-.05.02Z"/>
      <path class="cls-1" d="m9.7,42.55l-2.86.91c-.54.17-1.13-.13-1.3-.67-.17-.53.11-1.09.62-1.28l2.81-1.05c.57-.21,1.21.08,1.42.65.21.57-.08,1.21-.65,1.42-.02,0-.04.01-.05.02Z"/>
      <path class="cls-1" d="m2.06,44.95l-.96.29c-.45.14-.93-.11-1.07-.56-.13-.43.1-.89.51-1.05l.93-.36c.46-.17.97.05,1.14.51.17.46-.05.97-.51,1.14-.02,0-.04.01-.05.02Z"/>
    </g>
  </g>
</svg>