<?xml version="1.0" encoding="UTF-8"?>
<svg id="_Слой_2" data-name="Слой 2" xmlns="http://www.w3.org/2000/svg" viewBox="0 0 127.47 128.4">
  <defs>
    <style>
      .cls-1 {
        fill: #ffe36b;
        stroke-width: 0px;
      }
    </style>
  </defs>
  <g id="_планеты" data-name="планеты">
    <g>
      <polygon class="cls-1" points="7.32 35.82 8.71 33.2 8.72 33.2 8.72 33.21 7.32 35.82"/>
      <path class="cls-1" d="m11.2,28.93l.53-.84c.05-.08.16-.1.23-.05.08.05.1.16.05.23,0,0,0,0,0,.01l-.59.79c-.04.06-.13.08-.19.03-.06-.04-.07-.12-.04-.18Z"/>
      <path class="cls-1" d="m20.2,16.97l.69-.74c.47-.5,1.25-.52,1.74-.05.5.47.52,1.25.05,1.74-.05.05-.1.1-.15.14h-.02s-.78.6-.78.6h-.02c-.51.39-1.22.29-1.6-.21-.34-.45-.3-1.08.08-1.48Z"/>
      <path class="cls-1" d="m21.6,15.51l2.19-2.1c.62-.6,1.61-.57,2.2.05s.58,1.61-.05,2.2c-.06.06-.12.11-.19.15l-.06.04-2.39,1.64-.06.04c-.6.41-1.41.26-1.82-.34-.37-.54-.28-1.25.17-1.69Z"/>
      <path class="cls-1" d="m27.72,10.18l.82-.6c.87-.64,2.09-.45,2.72.42.64.87.45,2.09-.42,2.73-.06.04-.12.08-.19.12l-.03.02-.84.47-.03.02c-.91.51-2.06.19-2.57-.72-.47-.84-.23-1.89.53-2.45Z"/>
      <path class="cls-1" d="m41.37,3.47l.97-.29c.91-.28,1.87.24,2.15,1.15.26.86-.18,1.76-.99,2.09h-.04s-.89.38-.89.38h-.02c-.91.38-1.94-.05-2.31-.96-.37-.91.06-1.94.97-2.31.05-.02.11-.04.16-.06Z"/>
      <path class="cls-1" d="m43.31,2.89l2.94-.75c.83-.21,1.67.29,1.88,1.12.2.78-.23,1.57-.98,1.84l-.08.03-2.73.96-.07.02c-.88.31-1.83-.15-2.14-1.03s.15-1.83,1.03-2.14c.05-.02.1-.03.14-.04Z"/>
      <path class="cls-1" d="m51.21,1.12l.99-.18c.76-.13,1.48.37,1.62,1.13.13.75-.36,1.47-1.11,1.61h-.02s-.95.19-.95.19h-.02c-.76.15-1.5-.35-1.65-1.11s.35-1.5,1.11-1.65c0,0,.02,0,.02,0Z"/>
      <path class="cls-1" d="m66.28,0l1.01.04c.78.04,1.39.7,1.35,1.48-.03.78-.7,1.39-1.48,1.35,0,0,0,0-.01,0h-.03s-.96-.06-.96-.06h-.02c-.78-.05-1.37-.72-1.32-1.49.05-.77.7-1.36,1.47-1.32Z"/>
      <path class="cls-1" d="m68.29.11l3.01.3c.78.08,1.35.77,1.27,1.55-.08.78-.77,1.35-1.55,1.27h-.07s-2.88-.29-2.88-.29h-.07c-.78-.08-1.35-.78-1.27-1.56.08-.78.77-1.35,1.55-1.27h0Z"/>
      <path class="cls-1" d="m76.28,1.27l.98.22c.74.17,1.2.9,1.03,1.64-.16.72-.87,1.18-1.6,1.04h-.02s-.95-.19-.95-.19h-.02c-.75-.15-1.23-.88-1.08-1.63.15-.75.88-1.23,1.62-1.08,0,0,.03,0,.04,0Z"/>
      <path class="cls-1" d="m90.5,6.28l.9.45c.53.27.75.92.48,1.45-.26.52-.88.74-1.41.5h-.02s-.88-.41-.88-.41h-.01c-.55-.26-.8-.91-.55-1.46.25-.55.9-.8,1.46-.55.01,0,.03.01.04.02Z"/>
      <path class="cls-1" d="m92.28,7.2l2.63,1.47c.48.27.66.88.39,1.37-.26.47-.85.65-1.33.41l-.04-.02-2.6-1.33-.04-.02c-.52-.27-.73-.91-.46-1.43.27-.52.91-.73,1.43-.46.01,0,.02.01.03.02Z"/>
      <path class="cls-1" d="m99.13,11.38l.82.58c.41.29.5.85.21,1.26-.28.4-.82.5-1.23.23h-.01s-.81-.54-.81-.54h-.01c-.42-.29-.54-.86-.26-1.28s.85-.54,1.27-.26c0,0,.02.01.03.02Z"/>
      <path class="cls-1" d="m110.3,21.34l.66.75c.23.27.21.68-.06.91-.26.23-.66.21-.9-.05h0s-.67-.72-.67-.72h0c-.25-.28-.23-.69.03-.94.27-.25.69-.23.94.03,0,0,.01.01.01.02Z"/>
      <path class="cls-1" d="m111.6,22.86l1.85,2.35c.2.25.15.61-.1.8-.24.19-.59.15-.79-.08l-.02-.02-1.9-2.23-.02-.02c-.23-.27-.19-.66.07-.89s.66-.19.89.07c0,0,.01.01.02.02Z"/>
      <path class="cls-1" d="m116.27,29.32l.53.84c.13.21.07.5-.15.63-.21.13-.48.07-.62-.13h0s-.55-.82-.55-.82h0c-.15-.22-.09-.52.13-.66.22-.15.51-.09.66.13,0,0,0,0,0,.01Z"/>
      <path class="cls-1" d="m122.87,42.65l.34.94c.07.2-.03.43-.24.5-.2.07-.43-.03-.5-.24h0s0,0,0,0l-.32-.93h0c-.07-.21.04-.43.24-.5.2-.07.42.04.49.23Z"/>
      <path class="cls-1" d="m123.53,44.53c.3.95.57,1.9.89,2.85.07.22-.05.46-.27.53-.22.07-.46-.05-.53-.27,0,0,0-.01,0-.02v-.02c-.26-.95-.56-1.88-.83-2.82v-.02c-.07-.21.05-.43.26-.49.21-.06.42.06.49.26Z"/>
      <path class="cls-1" d="m125.67,52.18l.22.97c.07.31-.13.61-.43.68s-.61-.13-.68-.44c0-.01,0-.02,0-.04h0s-.15-.98-.15-.98h0c-.04-.3.16-.58.45-.62.28-.04.54.14.61.42Z"/>
      <path class="cls-1" d="m127.47,67.08v1.01c0,.71-.58,1.29-1.29,1.29-.71,0-1.29-.58-1.29-1.29,0-.04,0-.09,0-.13v-.02s.1-.96.1-.96v-.02c.07-.68.68-1.17,1.36-1.1.63.07,1.11.61,1.11,1.23Z"/>
      <path class="cls-1" d="m127.46,69.1c-.04,1.01-.11,2.02-.17,3.03-.05.81-.74,1.42-1.55,1.37-.81-.05-1.42-.74-1.37-1.55,0-.04,0-.08.01-.11v-.07c.14-.95.27-1.91.42-2.87v-.07c.13-.73.81-1.23,1.54-1.11.68.11,1.15.71,1.13,1.38Z"/>
      <path class="cls-1" d="m126.61,77.14l-.19,1c-.17.89-1.02,1.48-1.91,1.31s-1.48-1.02-1.31-1.91c0-.02.01-.05.02-.07v-.03s.23-.94.23-.94v-.03c.21-.87,1.09-1.4,1.95-1.19.84.2,1.37,1.03,1.21,1.87Z"/>
      <path class="cls-1" d="m121.57,91.4l-.45.9c-.32.64-1.09.9-1.73.58-.62-.31-.89-1.06-.6-1.69v-.02s.41-.88.41-.88v-.02c.31-.66,1.08-.95,1.74-.65.66.3.95,1.08.65,1.73,0,.01-.01.03-.02.04Z"/>
      <path class="cls-1" d="m120.66,93.2c-.5.87-.92,1.79-1.29,2.74-.29.75-1.13,1.12-1.88.82-.75-.29-1.12-1.13-.82-1.88.04-.11.1-.21.16-.31l.04-.05c.56-.79,1.08-1.61,1.51-2.48l.02-.05c.31-.64,1.08-.9,1.71-.59s.9,1.08.59,1.71c-.01.03-.03.05-.04.08Z"/>
      <path class="cls-1" d="m116.89,100.35l-.56.84c-.51.76-1.54.96-2.3.46-.76-.51-.96-1.54-.46-2.3,0,0,.01-.02.02-.02l.02-.03.55-.79.02-.02c.52-.74,1.55-.92,2.29-.4.73.51.92,1.52.42,2.26Z"/>
      <path class="cls-1" d="m107.07,111.94l-.76.68c-.73.65-1.85.59-2.5-.13-.65-.73-.59-1.85.13-2.5l.02-.02.71-.64.02-.02c.73-.66,1.85-.6,2.51.13.66.73.6,1.85-.13,2.51h0Z"/>
      <path class="cls-1" d="m105.55,113.29c-.79.64-1.57,1.29-2.37,1.91-.76.59-1.86.45-2.45-.31-.57-.74-.46-1.79.23-2.39l.07-.06c.73-.63,1.47-1.23,2.21-1.84l.06-.05c.76-.62,1.87-.51,2.49.24.62.76.51,1.87-.24,2.49h0Z"/>
      <path class="cls-1" d="m99.01,118.09l-.86.54c-.77.48-1.78.25-2.26-.52-.47-.75-.26-1.73.47-2.23l.03-.02.8-.54h.02c.76-.53,1.79-.33,2.3.43s.31,1.79-.45,2.3c-.01.01-.04.02-.05.03Z"/>
      <path class="cls-1" d="m85.14,124.03l-.93.38c-.4.16-.85-.03-1.01-.43-.16-.4.03-.85.43-1.01.02,0,.04-.02.06-.02h.01s.93-.29.93-.29h.01c.39-.12.8.1.92.48.11.37-.08.75-.43.89Z"/>
      <path class="cls-1" d="m83.28,124.77l-2.83,1.03c-.52.19-1.09-.08-1.28-.6-.19-.52.08-1.09.6-1.28.03-.01.07-.02.11-.03h.04s2.84-.7,2.84-.7h.04c.44-.12.89.16,1,.6.1.41-.13.83-.52.97Z"/>
      <path class="cls-1" d="m75.61,127.13l-.99.2c-.65.13-1.27-.29-1.4-.93-.13-.65.29-1.27.93-1.4,0,0,.02,0,.03,0h.02s.95-.17.95-.17h.02c.64-.11,1.25.32,1.36.96.11.63-.31,1.23-.93,1.35Z"/>
      <path class="cls-1" d="m60.59,128.4l-1.01-.05c-.73-.04-1.29-.66-1.26-1.39.04-.73.66-1.29,1.39-1.26h.02s.96.05.96.05h.02c.73.04,1.29.66,1.26,1.39s-.66,1.29-1.39,1.26h0Z"/>
      <path class="cls-1" d="m58.58,128.27l-3-.34c-.7-.08-1.2-.71-1.12-1.41.08-.69.69-1.19,1.37-1.13h.06s2.89.25,2.89.25h.06c.72.07,1.26.7,1.2,1.43-.06.72-.7,1.26-1.42,1.2,0,0-.03,0-.03,0Z"/>
      <path class="cls-1" d="m50.63,127.01c-.33-.08-.65-.17-.97-.26-.59-.16-.93-.78-.77-1.36.15-.54.68-.88,1.22-.8h.02c.32.05.64.1.96.16h.02c.63.12,1.04.72.92,1.35-.12.63-.72,1.04-1.35.92-.02,0-.04,0-.05-.01Z"/>
      <path class="cls-1" d="m36.78,121.34l-.86-.48s-.04-.05-.02-.07c.01-.02.04-.03.07-.02l.92.36c.06.02.09.09.07.16-.02.06-.09.09-.16.07,0,0-.01,0-.02,0Z"/>
      <path class="cls-1" d="m35.05,120.39c-.86-.48-1.74-.94-2.61-1.4,0,0,0-.01,0-.02,0,0,.01,0,.02,0h0c.87.48,1.73.95,2.61,1.39,0,0,.01.01,0,.02,0,0-.01.01-.02,0,0,0,0,0,0,0Z"/>
      <path class="cls-1" d="m28.14,116.52l-.84-.52c-.1-.06-.13-.2-.07-.3s.2-.13.3-.07c0,0,.01,0,.02.01l.79.59c.08.06.09.16.04.24-.05.07-.16.09-.23.05Z"/>
      <path class="cls-1" d="m16.7,107.03l-.67-.74c-.17-.18-.15-.47.03-.63.18-.17.47-.15.63.03h0s0,0,0,0l.65.73h0c.16.19.15.47-.03.63-.18.16-.46.15-.62-.03Z"/>
      <path class="cls-1" d="m15.38,105.55l-1.9-2.3c-.16-.2-.14-.49.06-.65.2-.16.49-.14.65.06h0s.01.02.01.02l1.85,2.28v.02c.17.19.14.48-.05.63-.19.16-.47.13-.63-.06Z"/>
      <path class="cls-1" d="m10.56,99.22l-.54-.83c-.15-.23-.08-.53.14-.67.22-.15.53-.08.67.14h0s0,0,0,0l.53.82h0c.14.23.08.53-.14.67-.22.14-.52.08-.67-.14Z"/>
      <path class="cls-1" d="m3.87,85.92l-.33-.94c-.09-.25.04-.52.29-.61.25-.09.52.04.61.29h0s.33.93.33.93h0c.09.26-.04.53-.29.62-.25.09-.52-.04-.61-.29h0Z"/>
      <path class="cls-1" d="m3.22,84.04l-.87-2.85c-.08-.25.07-.52.32-.6.25-.08.52.07.6.32h0s0,.02,0,.02l.85,2.81v.02c.08.25-.06.52-.31.59-.25.08-.52-.07-.59-.32Z"/>
      <path class="cls-1" d="m1.18,76.35l-.19-.98c-.05-.28.13-.54.4-.6.28-.05.54.13.6.4h0s0,.01,0,.01l.18.96h0c.05.28-.13.54-.41.59-.27.05-.53-.13-.59-.4Z"/>
      <path class="cls-1" d="m0,61.49l.05-1c.02-.31.28-.56.6-.54.31.02.56.28.54.6h0s0,.01,0,.01l-.05.98h0c-.02.32-.28.56-.6.55-.31-.02-.55-.28-.54-.59Z"/>
      <path class="cls-1" d="m.11,59.5l.3-2.97c.03-.31.31-.54.62-.5.31.03.53.31.5.61v.03s-.28,2.92-.28,2.92v.03c-.03.31-.31.55-.63.52-.32-.03-.55-.31-.52-.62h0Z"/>
      <path class="cls-1" d="m1.24,51.62l.21-.97c.06-.29.34-.47.63-.4.28.06.46.34.41.62h0s-.2.97-.2.97h0c-.06.3-.34.48-.63.42-.29-.06-.48-.34-.42-.63,0,0,0,0,0,0Z"/>
      <path class="cls-1" d="m6.39,37.68l.43-.89s0,0,.01,0,0,0,0,.01l-.42.89s-.02.01-.02,0c0,0-.01-.02,0-.02h0Z"/>
    </g>
  </g>
</svg>